<?xml version="1.0" encoding="UTF-8" standalone="no"?>
<!DOCTYPE svg PUBLIC "-//W3C//DTD SVG 1.1//EN" "http://www.w3.org/Graphics/SVG/1.1/DTD/svg11.dtd">
<svg width="100%" height="100%" viewBox="0 0 387 53" version="1.1" xmlns="http://www.w3.org/2000/svg" xmlns:xlink="http://www.w3.org/1999/xlink" xml:space="preserve" xmlns:serif="http://www.serif.com/" style="fill-rule:evenodd;clip-rule:evenodd;stroke-linejoin:round;stroke-miterlimit:2;">
    <g transform="matrix(1,0,0,1,-74.4,-409.64)">
        <path d="M198.83,423.89C198.83,424.08 198.83,424.28 198.82,424.49C198.77,425.45 198.61,426.39 198.36,427.05L198.12,427.69L197.59,427.67C197.48,427.67 197.35,427.66 197.29,427.66C196.64,427.63 191.45,427.56 191.22,427.56C189.05,427.56 187.27,427.65 185.82,427.82C184.29,428 182.99,428.27 181.96,428.67C180.69,429.13 179.77,429.79 179.12,430.64C178.51,431.45 178.19,432.46 178.16,433.7C178.15,433.78 178.15,433.85 178.15,433.89L178.15,461.13L177.29,461.33C175.16,461.81 172.92,461.81 170.79,461.33L169.91,461.13L169.91,433.1C169.91,430.19 170.82,427.77 172.63,425.91C174.15,424.36 176.29,423.17 179.02,422.39C180.87,421.83 183.01,421.46 185.5,421.25C187.51,421.11 192.99,421.12 193.52,421.14L193.67,421.14C194.53,421.15 195.39,421.17 196.23,421.2C196.98,421.23 197.72,421.26 198.45,421.31L198.64,421.97C198.78,422.46 198.85,423.14 198.85,423.9L198.83,423.89Z" style="fill:white;fill-rule:nonzero;"/>
        <path d="M248.63,433.81L248.63,444.19L247.62,444.21C242.04,444.41 222.33,444.4 219.45,444.39L219.22,443.74C219.17,443.59 219.11,443.43 219.08,443.23C218.98,442.78 218.92,442.29 218.9,441.76C218.89,441.55 218.89,441.32 218.89,441.12C218.9,440.62 218.95,440.12 219.05,439.64C219.09,439.44 219.14,439.25 219.21,439.08L219.44,438.47L240.48,438.41L240.48,434.11C240.48,430.12 237.86,428.31 231.43,427.86C230.48,427.77 229.45,427.75 228.69,427.73C228.29,427.72 227.9,427.72 227.5,427.72C219.37,427.72 214.32,428.79 214.32,434.11L214.32,448.9C214.32,453.62 218.03,455.29 228.51,455.29C235.51,455.29 239.83,454.89 245.34,454.14L246.24,454.03L246.49,454.91C246.93,456.34 246.93,458.34 246.49,459.78L246.3,460.43L245.62,460.53C238.89,461.44 233.39,461.85 227.78,461.85C222.17,461.85 206.09,461.85 206.09,449.83L206.09,433.4C206.09,429.42 207.79,426.38 211.18,424.38C216.37,421.25 224.18,421.25 227.51,421.25C227.9,421.25 228.27,421.25 228.66,421.26C229.61,421.27 230.5,421.32 231.37,421.39C242.67,422.14 248.64,426.44 248.64,433.83L248.63,433.81Z" style="fill:white;fill-rule:nonzero;"/>
        <path d="M117.14,444.61L117.14,449.02C117.14,461.83 99.92,461.83 94.26,461.83C87.18,461.83 80.9,461.43 75.59,460.65L74.93,460.55L74.73,459.92C74.29,458.54 74.29,456.41 74.73,454.95L74.98,454.11L75.86,454.2C82.99,454.91 88.33,455.2 94.27,455.2C104.75,455.2 108.82,453.31 108.82,448.45L108.82,445.27C108.82,442.06 107.05,441.51 100.91,440.09L87.56,437.03C79.09,435 74.5,432.72 74.5,426.49L74.5,422.37C74.5,413.91 82.51,409.64 98.3,409.64C104.35,409.64 109.67,409.85 115.89,410.88L116.54,410.99L116.73,411.6C117.16,412.97 117.16,415.01 116.73,416.36L116.47,417.21L115.61,417.11C109.19,416.37 104.52,416.09 98.38,416.09C87.19,416.09 82.84,417.94 82.84,422.71L82.84,425.39C82.84,428.4 84.54,429.22 90.87,430.73L104.1,433.94C112.22,435.83 117.15,437.5 117.15,444.6L117.14,444.61Z" style="fill:white;fill-rule:nonzero;"/>
        <path d="M158.44,460.41L158.24,461.07L157.55,461.14C154.79,461.49 151.75,461.82 148.21,461.82C138.1,461.82 132.53,457.53 132.53,449.74L132.53,428.62L123.87,428.62L123.63,427.91C123.2,426.59 123.2,424.78 123.63,423.47L123.88,422.77L132.53,422.48L132.53,412.45L133.43,412.3C135.35,412 137.94,412 139.87,412.3L140.76,412.45L140.76,422.37L158.17,422.37L158.42,423.07C158.86,424.29 158.86,426.59 158.42,427.88L158.17,428.61L140.76,428.61L140.76,448.49C140.76,454.1 144.39,455.26 149.83,455.26C152.59,455.26 154.64,455.08 157.27,454.77L158.19,454.64L158.44,455.53C158.85,457.05 158.85,458.95 158.43,460.39L158.44,460.41Z" style="fill:white;fill-rule:nonzero;"/>
        <path d="M296.26,454.73C296.67,456.17 296.67,458.18 296.26,459.62L296.06,460.26L295.4,460.36C289.42,461.26 284.42,461.68 279.17,461.68C273.92,461.68 258.49,461.68 258.49,449.75L258.49,433.08C258.49,421.09 274.05,421.09 279.17,421.09C285.51,421.09 290.36,421.42 295.4,422.18L296.06,422.28L296.26,422.92C296.67,424.36 296.67,426.29 296.26,427.73L295.98,428.59L295.08,428.48C289.82,427.77 286.11,427.54 279.8,427.54C270.26,427.54 266.72,429.29 266.72,434.02L266.72,448.74C266.72,454.07 271.72,455.13 279.8,455.13C286.22,455.13 289.83,454.75 295.06,453.98L295.97,453.85L296.25,454.73L296.26,454.73Z" style="fill:white;fill-rule:nonzero;"/>
        <path d="M342.75,448.66L342.75,451.2C342.75,458.14 336.12,461.81 323.6,461.81C319.98,461.81 313,461.66 307.01,460.64L306.38,460.53L306.17,459.95C305.64,458.41 305.64,456.5 306.17,454.98L306.46,454.14L307.32,454.27C312.18,454.93 317.51,455.28 323.15,455.28C331.22,455.28 334.5,453.93 334.5,450.61L334.5,449.09C334.5,446.85 332.91,446.21 327.8,445.28L317.95,443.46C311.87,442.33 305.67,440.38 305.67,434.39L305.67,431.71C305.67,424.75 312.6,421.22 326.26,421.22C331.1,421.22 335.45,421.53 341.27,422.31L341.92,422.4L342.15,423.01C342.68,424.54 342.68,426.38 342.15,427.92L341.86,428.73L341,428.62C335.31,427.86 331.81,427.62 326.63,427.62C318.77,427.62 313.91,428.4 313.91,432.27L313.91,433.72C313.91,435.55 315.51,436.44 320.53,437.39L330.29,439.13C337.35,440.46 342.76,441.99 342.76,448.64L342.75,448.66Z" style="fill:white;fill-rule:nonzero;"/>
        <path d="M402.27,445.55L402.27,448.81C402.27,457.44 393.54,461.82 376.31,461.82C368.6,461.82 362.48,461.43 357.6,460.64L356.96,460.55L356.77,459.92C356.33,458.55 356.33,456.39 356.77,455L357.02,454.19L357.87,454.28C364.29,454.96 369.37,455.22 376.03,455.22C388.76,455.22 393.95,453.23 393.95,448.38L393.95,445.42C393.95,440.23 388.9,438.2 375.94,438.2L362.56,438.2L362.32,437.46C361.89,436.12 361.89,434.05 362.33,432.65L362.54,431.89L375.2,431.89C387.86,431.89 393.02,430.04 393.02,425.49L393.02,422.87C393.02,418.02 388.1,416.05 376.03,416.05C370.12,416.05 365.37,416.11 358.1,417.04L357.19,417.17L356.94,416.31C356.53,414.87 356.53,412.91 356.94,411.56L357.15,410.91L357.81,410.82C364.95,409.86 370.38,409.65 376.31,409.65C382.24,409.65 401.37,409.65 401.37,422.52L401.37,425.41C401.37,429.52 399.29,432.57 395.17,434.46L394.22,434.9L395.18,435.31C399.89,437.38 402.27,440.82 402.27,445.56L402.27,445.55Z" style="fill:white;fill-rule:nonzero;"/>
        <path d="M437.46,410.57L412.46,410.57L412.46,460.88L437.46,460.88C443.34,460.88 461.23,460.88 461.23,446.54L461.23,424.89C461.23,412.05 447.66,410.57 437.46,410.57ZM452.81,445.83C452.81,451.92 448.65,454.19 437.46,454.19L420.91,454.19L420.91,417.17L437.46,417.17C448.65,417.17 452.81,419.46 452.81,425.6L452.81,445.83Z" style="fill:white;fill-rule:nonzero;"/>
        <path d="M437.48,410.53L412.48,410.53L412.48,460.84L437.48,460.84C443.36,460.84 461.25,460.84 461.25,446.5L461.25,424.85C461.25,412.01 447.68,410.53 437.48,410.53ZM452.84,445.79C452.84,451.88 448.68,454.15 437.49,454.15L420.94,454.15L420.94,417.13L437.49,417.13C448.68,417.13 452.84,419.42 452.84,425.56L452.84,445.79Z" style="fill:white;fill-rule:nonzero;"/>
    </g>
</svg>
