<?xml version="1.0" encoding="UTF-8" standalone="no"?>
<!DOCTYPE svg PUBLIC "-//W3C//DTD SVG 1.1//EN" "http://www.w3.org/Graphics/SVG/1.1/DTD/svg11.dtd">
<svg width="100%" height="100%" viewBox="0 0 1325 892" version="1.1" xmlns="http://www.w3.org/2000/svg" xmlns:xlink="http://www.w3.org/1999/xlink" xml:space="preserve" xmlns:serif="http://www.serif.com/" style="fill-rule:evenodd;clip-rule:evenodd;stroke-linecap:round;stroke-linejoin:round;stroke-miterlimit:1.5;">
    <g transform="matrix(1,0,0,1,-936.791667,-145.474531)">
        <g transform="matrix(1,0,0,0.993151,0,2.10274)">
            <path d="M2055.208,454.007L2055.208,996.112C2055.208,1021.563 2034.563,1042.244 2009.112,1042.244L982.888,1042.244C957.437,1042.244 936.792,1021.563 936.792,996.112L936.792,347.888C936.792,322.437 957.437,301.756 982.888,301.756L1966.35,301.756L1960.126,312.244L982.888,312.244C963.206,312.244 947.208,328.206 947.208,347.888L947.208,996.112C947.208,1015.794 963.206,1031.756 982.888,1031.756L2009.112,1031.756C2028.794,1031.756 2044.792,1015.794 2044.792,996.112L2044.792,454.007L2055.208,454.007Z" style="fill:rgb(237,237,237);"/>
        </g>
        <g transform="matrix(0.176462,0,0,0.176462,2064.607359,338.045826)">
            <g transform="matrix(1,0,0,1,-1115.916667,-1091.291667)">
                <g transform="matrix(4.166667,0,0,4.166667,0,0)">
                    <path d="M453.39,376.77C451.58,378.59 449.07,379.79 446.13,379.79L89.38,379.79C86.46,379.79 83.93,378.59 82.13,376.77C81.72,376.35 81.35,375.9 81.05,375.43L444.19,375.43C447.57,375.43 448.96,371.41 446.84,369.26C446.59,369.01 446.3,368.78 445.96,368.59L346.03,313.17C342.41,311.11 339.1,308.59 336.2,305.67C330.46,299.96 326.25,292.76 324.15,284.86L265.7,65.16C265.7,65.16 265.69,65.11 265.68,65.09L264.98,62.42C265.31,62.3 265.66,62.22 266.01,62.16C266.3,62.1 266.61,62.05 266.91,62.04C266.91,62.04 268.21,61.97 268.27,61.99C269.09,62 269.9,62.12 270.68,62.35C271.9,62.69 273.06,63.28 274.11,64.09C275.18,64.92 276.11,65.96 276.81,67.27L454.82,364.4C457.38,368.64 456.41,373.63 453.38,376.75L453.39,376.77Z" style="fill:white;fill-rule:nonzero;"/>
                </g>
                <g transform="matrix(4.166667,0,0,4.166667,0,0)">
                    <path d="M446.85,369.26L438.22,364.59L346.04,313.18L445.97,368.6C446.31,368.79 446.6,369.02 446.85,369.27L446.85,369.26Z" style="fill:white;fill-rule:nonzero;"/>
                </g>
                <g transform="matrix(4.166667,0,0,4.166667,0,0)">
                    <path d="M444.19,375.43L81.05,375.43C80.66,374.89 80.74,375.05 80.37,374.4C79.95,373.67 79.72,372.87 79.58,372.3L82.43,371.48L90.06,369.26L303.26,307.64C307.15,306.52 310.27,303.98 312.21,300.72L312.22,300.72C313.64,298.35 314.44,295.59 314.44,292.75C314.44,291.45 314.28,290.13 313.92,288.82L256.43,73.22C256.27,72.62 256.35,71.99 256.68,71.45L259.29,67.12L259.33,67.04C260.05,65.85 260.97,64.79 262.07,63.95C263.36,62.96 265.23,63.57 265.69,65.11C265.7,65.13 265.7,65.16 265.71,65.18L324.16,284.88C326.26,292.78 330.47,299.98 336.21,305.69C339.11,308.61 342.42,311.14 346.04,313.19L445.97,368.61C446.31,368.8 446.6,369.03 446.85,369.28C448.96,371.43 447.58,375.45 444.2,375.45L444.19,375.43Z" style="fill:rgb(35,24,21);fill-rule:nonzero;"/>
                </g>
                <g transform="matrix(4.166667,0,0,4.166667,0,0)">
                    <path d="M312.23,300.71L312.23,300.72L312.22,300.72L83.8,367.98L255.44,78.63L312.23,300.71Z" style="fill:white;fill-rule:nonzero;"/>
                </g>
                <g transform="matrix(4.166667,0,0,4.166667,0,0)">
                    <path d="M313.99,288.8L258.61,81.15L256.24,72.25L80.28,365.95C78.88,368.27 79.41,372.1 79.59,372.31L303.31,307.63C311.35,305.33 316.14,296.88 313.98,288.81L313.99,288.8ZM272.53,161.96L280.99,194.14C281.66,196.7 279.15,198.97 276.53,198.15L253.67,191.02C251.56,190.35 250.59,188.02 251.67,186.17L266.06,161.13C267.59,158.46 271.73,159 272.52,161.96L272.53,161.96ZM200,253C202.17,252.18 204.22,254.43 203.09,256.39L187.21,284.02C186.08,286 182.97,285.48 182.58,283.24L178.93,262.97C178.74,261.85 179.38,260.76 180.47,260.34L200,252.99L200,253ZM185.98,247.35L201.01,221.21C202.13,219.27 205.15,219.77 205.58,221.95L209.08,239.9C209.42,241.67 208.43,243.42 206.69,244.07L189.04,250.72C186.9,251.52 184.86,249.29 185.97,247.35L185.98,247.35ZM193.63,287.11L209.54,259.44C211.27,256.44 215.81,256.58 217.38,259.69L229.02,282.9C230.3,285.45 228.71,288.45 225.82,288.91L198.26,293.38C194.61,293.97 191.84,290.23 193.64,287.11L193.63,287.11ZM218.69,250.23C217.86,248.58 218.98,246.65 220.86,246.44L253.15,243.09C255.38,242.86 256.97,245.15 255.89,247.03L237.75,278.57C236.67,280.45 233.82,280.37 232.86,278.42L218.7,250.23L218.69,250.23ZM227.33,240.47C224.26,240.78 222.07,237.63 223.57,235.05L241.11,204.52C242.66,201.83 246.78,202.09 247.98,204.97L259.46,232.45C260.4,234.7 258.87,237.18 256.38,237.44L227.33,240.48L227.33,240.47ZM245.49,149.19L261.27,148.34C263.04,148.24 264.24,150.06 263.38,151.56L249.25,176.13C248.53,177.4 246.54,177.02 246.36,175.57L243.39,151.58C243.24,150.35 244.19,149.25 245.49,149.18L245.49,149.19ZM251.68,198.94C250.89,197.06 252.73,195.15 254.73,195.78L277.33,202.84C279.07,203.39 279.88,205.32 278.99,206.85L268.03,225.9C266.86,227.94 263.72,227.75 262.81,225.56L251.67,198.94L251.68,198.94ZM262.09,122.33L266.86,140.46C267.2,141.71 266.26,142.93 264.94,143.01L249.25,143.86C247.57,143.94 246.44,142.21 247.25,140.81L258.17,121.82C259.11,120.2 261.63,120.53 262.1,122.34L262.09,122.33ZM241.3,106.18L252.29,87.22C253.22,85.6 255.74,85.95 256.19,87.77L260.27,104.17C260.71,105.94 259.44,107.67 257.56,107.85L243.39,109.21C241.69,109.37 240.49,107.62 241.32,106.18L241.3,106.18ZM241.03,114.2L253.96,112.88C255.06,112.77 255.87,113.92 255.32,114.86L243.72,135.02C243.22,135.89 241.83,135.63 241.7,134.62L239.42,116.14C239.3,115.17 240.02,114.3 241.01,114.2L241.03,114.2ZM238.34,162.43L241.33,186.7C241.48,187.89 240.78,189.02 239.64,189.47L217.81,198.04C216.32,198.63 214.89,197.07 215.67,195.72L235.17,161.81C235.96,160.42 238.14,160.84 238.35,162.42L238.34,162.43ZM219.96,143.02L232.51,121.35C233.06,120.41 234.55,120.7 234.69,121.77L237.43,142.87C237.58,144.04 236.68,145.08 235.47,145.15L221.84,145.9C220.26,146 219.18,144.36 219.96,143.02ZM216.82,154.11C216.96,153.17 217.75,152.45 218.73,152.39L231.13,151.63C232.48,151.55 233.41,152.94 232.75,154.07L214.35,186.06C213.87,186.92 212.51,186.48 212.65,185.51L216.82,154.11ZM233.11,198.52C234.51,197.97 235.85,199.43 235.13,200.7L216.82,232.53C216.1,233.8 214.12,233.47 213.85,232.05L209.73,210.94C209.38,209.18 210.36,207.45 212.08,206.78L233.11,198.52ZM195.02,186.31L209.29,161.68C209.78,160.85 211.1,161.27 210.98,162.21L206.62,195.85C206.44,197.17 204.84,197.8 203.76,196.95L195.98,190.95C194.54,189.83 194.13,187.86 195.03,186.3L195.02,186.31ZM179.63,213.12L189.62,195.88C190.33,194.64 192.03,194.33 193.18,195.23L201.63,201.75C202.71,202.58 202.54,204.2 201.32,204.8L181.12,214.61C180.14,215.09 179.1,214.04 179.63,213.12ZM176.98,222.66L194.32,214.05C195.97,213.22 197.75,214.98 196.84,216.56L179.93,245.96C179.21,247.24 177.19,246.81 177.07,245.35L175.43,225.36C175.34,224.24 175.95,223.18 176.98,222.67L176.98,222.66ZM174.8,275.12L178.33,294.72C178.66,296.52 177.69,298.3 175.99,299.08L155.86,308.21C153.8,309.15 151.7,306.98 152.79,305.06L170.44,274.38C171.5,272.53 174.42,273 174.8,275.12ZM158.26,249.21L168.33,232.01C168.88,231.1 170.33,231.41 170.42,232.47L172.22,254.25C172.33,255.57 170.98,256.55 169.7,256.09L159.53,252.49C158.15,252 157.54,250.43 158.26,249.21ZM138.21,283.2L152.6,258.63C153.51,257.08 155.46,256.39 157.21,257.02L166.56,260.33C167.86,260.78 168.14,262.43 167.06,263.26L139.56,284.32C138.78,284.91 137.72,284.03 138.21,283.2ZM135.43,293.35L161.04,273.6C161.83,273 162.92,273.89 162.42,274.73L143.67,306.53C143,307.66 141.28,307.62 140.66,306.46L134.91,295.82C134.45,294.97 134.68,293.94 135.44,293.35L135.43,293.35ZM114.57,323.29L127.23,301.69C128.01,300.37 130.01,300.4 130.76,301.76L137.15,313.41C137.72,314.45 137.27,315.73 136.17,316.2L116.07,324.88C115.05,325.33 114.01,324.24 114.57,323.29ZM114.16,354.93L97.52,360.07C95.69,360.64 94.09,358.73 95.03,357.13L106.11,338.23C106.94,336.8 109.12,336.88 109.86,338.37L116.01,350.8C116.83,352.45 115.96,354.4 114.17,354.94L114.16,354.93ZM118.2,345.41L112.67,334.04C112.25,333.17 112.64,332.12 113.56,331.72L131.1,324.02C132.05,323.6 133.01,324.61 132.49,325.49L120.67,345.51C120.11,346.45 118.68,346.38 118.2,345.4L118.2,345.41ZM150.49,344.71L131.05,350.75C129.09,351.35 127.34,349.32 128.34,347.59L139.61,328C140.48,326.49 142.73,326.5 143.59,328.03L151.59,342.04C152.18,343.06 151.64,344.36 150.49,344.71ZM154.51,335.48L146.24,320.98C145.75,320.11 146.1,319.03 147.03,318.62L169.51,308.42C171.06,307.71 172.66,309.35 171.83,310.79L157.63,335.49C156.95,336.68 155.19,336.66 154.52,335.48L154.51,335.48ZM204.37,327.03L171.18,337.06C168.25,337.95 165.67,334.91 167.17,332.32L181.85,307.04C182.89,305.24 185.38,304.82 187.02,306.17L205.53,321.42C207.56,323.1 206.91,326.26 204.37,327.04L204.37,327.03ZM210.01,317.6L192.28,303.33C190.88,302.19 191.48,299.98 193.29,299.69L223.77,294.74C225.86,294.41 227.42,296.54 226.4,298.31L215.9,316.56C214.73,318.6 211.89,319.11 210.01,317.6ZM288.01,302.27L226.32,321.32C224.17,321.99 222.24,319.75 223.35,317.84L234.88,297.78C236.62,294.74 240.09,293.01 243.68,293.35L287.46,297.56C290.17,297.82 290.59,301.46 288.01,302.26L288.01,302.27ZM297.5,292.46L248.11,287.38C244.88,287.04 243.03,283.65 244.59,280.92L262.77,249.3C264.31,246.61 268.21,246.37 270.14,248.81L300.53,287.23C302.34,289.52 300.45,292.76 297.49,292.46L297.5,292.46ZM298.59,276.9L271.54,242.69C269.8,240.48 269.56,237.5 270.94,235.07L282.65,214.72C283.58,213.11 286.07,213.44 286.55,215.24L302.32,275.18C302.88,277.33 299.99,278.66 298.6,276.9L298.59,276.9Z" style="fill:rgb(35,24,21);fill-rule:nonzero;"/>
                    <g>
                        <clipPath id="_clip1">
                            <path d="M313.99,288.8L258.61,81.15L256.24,72.25L80.28,365.95C78.88,368.27 79.41,372.1 79.59,372.31L303.31,307.63C311.35,305.33 316.14,296.88 313.98,288.81L313.99,288.8ZM272.53,161.96L280.99,194.14C281.66,196.7 279.15,198.97 276.53,198.15L253.67,191.02C251.56,190.35 250.59,188.02 251.67,186.17L266.06,161.13C267.59,158.46 271.73,159 272.52,161.96L272.53,161.96ZM200,253C202.17,252.18 204.22,254.43 203.09,256.39L187.21,284.02C186.08,286 182.97,285.48 182.58,283.24L178.93,262.97C178.74,261.85 179.38,260.76 180.47,260.34L200,252.99L200,253ZM185.98,247.35L201.01,221.21C202.13,219.27 205.15,219.77 205.58,221.95L209.08,239.9C209.42,241.67 208.43,243.42 206.69,244.07L189.04,250.72C186.9,251.52 184.86,249.29 185.97,247.35L185.98,247.35ZM193.63,287.11L209.54,259.44C211.27,256.44 215.81,256.58 217.38,259.69L229.02,282.9C230.3,285.45 228.71,288.45 225.82,288.91L198.26,293.38C194.61,293.97 191.84,290.23 193.64,287.11L193.63,287.11ZM218.69,250.23C217.86,248.58 218.98,246.65 220.86,246.44L253.15,243.09C255.38,242.86 256.97,245.15 255.89,247.03L237.75,278.57C236.67,280.45 233.82,280.37 232.86,278.42L218.7,250.23L218.69,250.23ZM227.33,240.47C224.26,240.78 222.07,237.63 223.57,235.05L241.11,204.52C242.66,201.83 246.78,202.09 247.98,204.97L259.46,232.45C260.4,234.7 258.87,237.18 256.38,237.44L227.33,240.48L227.33,240.47ZM245.49,149.19L261.27,148.34C263.04,148.24 264.24,150.06 263.38,151.56L249.25,176.13C248.53,177.4 246.54,177.02 246.36,175.57L243.39,151.58C243.24,150.35 244.19,149.25 245.49,149.18L245.49,149.19ZM251.68,198.94C250.89,197.06 252.73,195.15 254.73,195.78L277.33,202.84C279.07,203.39 279.88,205.32 278.99,206.85L268.03,225.9C266.86,227.94 263.72,227.75 262.81,225.56L251.67,198.94L251.68,198.94ZM262.09,122.33L266.86,140.46C267.2,141.71 266.26,142.93 264.94,143.01L249.25,143.86C247.57,143.94 246.44,142.21 247.25,140.81L258.17,121.82C259.11,120.2 261.63,120.53 262.1,122.34L262.09,122.33ZM241.3,106.18L252.29,87.22C253.22,85.6 255.74,85.95 256.19,87.77L260.27,104.17C260.71,105.94 259.44,107.67 257.56,107.85L243.39,109.21C241.69,109.37 240.49,107.62 241.32,106.18L241.3,106.18ZM241.03,114.2L253.96,112.88C255.06,112.77 255.87,113.92 255.32,114.86L243.72,135.02C243.22,135.89 241.83,135.63 241.7,134.62L239.42,116.14C239.3,115.17 240.02,114.3 241.01,114.2L241.03,114.2ZM238.34,162.43L241.33,186.7C241.48,187.89 240.78,189.02 239.64,189.47L217.81,198.04C216.32,198.63 214.89,197.07 215.67,195.72L235.17,161.81C235.96,160.42 238.14,160.84 238.35,162.42L238.34,162.43ZM219.96,143.02L232.51,121.35C233.06,120.41 234.55,120.7 234.69,121.77L237.43,142.87C237.58,144.04 236.68,145.08 235.47,145.15L221.84,145.9C220.26,146 219.18,144.36 219.96,143.02ZM216.82,154.11C216.96,153.17 217.75,152.45 218.73,152.39L231.13,151.63C232.48,151.55 233.41,152.94 232.75,154.07L214.35,186.06C213.87,186.92 212.51,186.48 212.65,185.51L216.82,154.11ZM233.11,198.52C234.51,197.97 235.85,199.43 235.13,200.7L216.82,232.53C216.1,233.8 214.12,233.47 213.85,232.05L209.73,210.94C209.38,209.18 210.36,207.45 212.08,206.78L233.11,198.52ZM195.02,186.31L209.29,161.68C209.78,160.85 211.1,161.27 210.98,162.21L206.62,195.85C206.44,197.17 204.84,197.8 203.76,196.95L195.98,190.95C194.54,189.83 194.13,187.86 195.03,186.3L195.02,186.31ZM179.63,213.12L189.62,195.88C190.33,194.64 192.03,194.33 193.18,195.23L201.63,201.75C202.71,202.58 202.54,204.2 201.32,204.8L181.12,214.61C180.14,215.09 179.1,214.04 179.63,213.12ZM176.98,222.66L194.32,214.05C195.97,213.22 197.75,214.98 196.84,216.56L179.93,245.96C179.21,247.24 177.19,246.81 177.07,245.35L175.43,225.36C175.34,224.24 175.95,223.18 176.98,222.67L176.98,222.66ZM174.8,275.12L178.33,294.72C178.66,296.52 177.69,298.3 175.99,299.08L155.86,308.21C153.8,309.15 151.7,306.98 152.79,305.06L170.44,274.38C171.5,272.53 174.42,273 174.8,275.12ZM158.26,249.21L168.33,232.01C168.88,231.1 170.33,231.41 170.42,232.47L172.22,254.25C172.33,255.57 170.98,256.55 169.7,256.09L159.53,252.49C158.15,252 157.54,250.43 158.26,249.21ZM138.21,283.2L152.6,258.63C153.51,257.08 155.46,256.39 157.21,257.02L166.56,260.33C167.86,260.78 168.14,262.43 167.06,263.26L139.56,284.32C138.78,284.91 137.72,284.03 138.21,283.2ZM135.43,293.35L161.04,273.6C161.83,273 162.92,273.89 162.42,274.73L143.67,306.53C143,307.66 141.28,307.62 140.66,306.46L134.91,295.82C134.45,294.97 134.68,293.94 135.44,293.35L135.43,293.35ZM114.57,323.29L127.23,301.69C128.01,300.37 130.01,300.4 130.76,301.76L137.15,313.41C137.72,314.45 137.27,315.73 136.17,316.2L116.07,324.88C115.05,325.33 114.01,324.24 114.57,323.29ZM114.16,354.93L97.52,360.07C95.69,360.64 94.09,358.73 95.03,357.13L106.11,338.23C106.94,336.8 109.12,336.88 109.86,338.37L116.01,350.8C116.83,352.45 115.96,354.4 114.17,354.94L114.16,354.93ZM118.2,345.41L112.67,334.04C112.25,333.17 112.64,332.12 113.56,331.72L131.1,324.02C132.05,323.6 133.01,324.61 132.49,325.49L120.67,345.51C120.11,346.45 118.68,346.38 118.2,345.4L118.2,345.41ZM150.49,344.71L131.05,350.75C129.09,351.35 127.34,349.32 128.34,347.59L139.61,328C140.48,326.49 142.73,326.5 143.59,328.03L151.59,342.04C152.18,343.06 151.64,344.36 150.49,344.71ZM154.51,335.48L146.24,320.98C145.75,320.11 146.1,319.03 147.03,318.62L169.51,308.42C171.06,307.71 172.66,309.35 171.83,310.79L157.63,335.49C156.95,336.68 155.19,336.66 154.52,335.48L154.51,335.48ZM204.37,327.03L171.18,337.06C168.25,337.95 165.67,334.91 167.17,332.32L181.85,307.04C182.89,305.24 185.38,304.82 187.02,306.17L205.53,321.42C207.56,323.1 206.91,326.26 204.37,327.04L204.37,327.03ZM210.01,317.6L192.28,303.33C190.88,302.19 191.48,299.98 193.29,299.69L223.77,294.74C225.86,294.41 227.42,296.54 226.4,298.31L215.9,316.56C214.73,318.6 211.89,319.11 210.01,317.6ZM288.01,302.27L226.32,321.32C224.17,321.99 222.24,319.75 223.35,317.84L234.88,297.78C236.62,294.74 240.09,293.01 243.68,293.35L287.46,297.56C290.17,297.82 290.59,301.46 288.01,302.26L288.01,302.27ZM297.5,292.46L248.11,287.38C244.88,287.04 243.03,283.65 244.59,280.92L262.77,249.3C264.31,246.61 268.21,246.37 270.14,248.81L300.53,287.23C302.34,289.52 300.45,292.76 297.49,292.46L297.5,292.46ZM298.59,276.9L271.54,242.69C269.8,240.48 269.56,237.5 270.94,235.07L282.65,214.72C283.58,213.11 286.07,213.44 286.55,215.24L302.32,275.18C302.88,277.33 299.99,278.66 298.6,276.9L298.59,276.9Z"/>
                        </clipPath>
                        <g clip-path="url(#_clip1)">
                            <path d="M190.45,5.16L4.92,355.56L342.41,517.81L527.94,167.41L190.45,5.16Z" style="fill:rgb(35,24,21);fill-rule:nonzero;"/>
                        </g>
                    </g>
                </g>
            </g>
        </g>
        <g transform="matrix(0.461538,0,0,0.461538,806.076923,-354.692308)">
            <ellipse cx="379" cy="1516.5" rx="13" ry="12.5" style="fill:rgb(237,237,237);stroke:rgb(237,237,237);stroke-width:22.57px;"/>
        </g>
        <g transform="matrix(0.461538,0,0,0.461538,836.576923,-354.692308)">
            <ellipse cx="379" cy="1516.5" rx="13" ry="12.5" style="fill:rgb(237,237,237);stroke:rgb(237,237,237);stroke-width:22.57px;"/>
        </g>
        <g transform="matrix(0.461538,0,0,0.461538,867.076923,-354.692308)">
            <ellipse cx="379" cy="1516.5" rx="13" ry="12.5" style="fill:rgb(237,237,237);stroke:rgb(237,237,237);stroke-width:22.57px;"/>
        </g>
        <g transform="matrix(1,0,0,1,6,-18)">
            <rect x="1130" y="546" width="769" height="360" style="fill:none;stroke:rgb(192,192,192);stroke-width:10.42px;"/>
        </g>
        <g>
            <g transform="matrix(1,0,0,1,-483,-649.16027)">
                <circle cx="1620.5" cy="1179.5" r="6.5" style="fill:white;stroke:rgb(192,192,192);stroke-width:10.42px;"/>
            </g>
            <g transform="matrix(1,0,0,1,-483,-293.033145)">
                <circle cx="1620.5" cy="1179.5" r="6.5" style="fill:white;stroke:rgb(192,192,192);stroke-width:10.42px;"/>
            </g>
            <g transform="matrix(1,0,0,1,-363,-378)">
                <circle cx="1620.5" cy="1179.5" r="6.5" style="fill:white;stroke:rgb(192,192,192);stroke-width:10.42px;"/>
            </g>
            <g transform="matrix(1,0,0,1,-483,-407)">
                <circle cx="1620.5" cy="1179.5" r="6.5" style="fill:white;stroke:rgb(192,192,192);stroke-width:10.42px;"/>
            </g>
            <g transform="matrix(1,0,0,1,-483,-523.254332)">
                <circle cx="1620.5" cy="1179.5" r="6.5" style="fill:white;stroke:rgb(192,192,192);stroke-width:10.42px;"/>
            </g>
            <g transform="matrix(1,0,0,1,-376.062265,-558.810441)">
                <circle cx="1620.5" cy="1179.5" r="6.5" style="fill:white;stroke:rgb(192,192,192);stroke-width:10.42px;"/>
            </g>
            <g transform="matrix(1,0,0,1,-280.062265,-456.810441)">
                <circle cx="1620.5" cy="1179.5" r="6.5" style="fill:white;stroke:rgb(192,192,192);stroke-width:10.42px;"/>
            </g>
            <g transform="matrix(1,0,0,1,-179.955264,-531.451422)">
                <circle cx="1620.5" cy="1179.5" r="6.5" style="fill:white;stroke:rgb(192,192,192);stroke-width:10.42px;"/>
            </g>
            <g transform="matrix(1,0,0,1,-82.695439,-461.32054)">
                <circle cx="1620.5" cy="1179.5" r="6.5" style="fill:white;stroke:rgb(192,192,192);stroke-width:10.42px;"/>
            </g>
            <g transform="matrix(1,0,0,1,102.304561,-649.16027)">
                <circle cx="1620.5" cy="1179.5" r="6.5" style="fill:white;stroke:rgb(192,192,192);stroke-width:10.42px;"/>
            </g>
            <g transform="matrix(1,0,0,1,9.304561,-547.32054)">
                <circle cx="1620.5" cy="1179.5" r="6.5" style="fill:white;stroke:rgb(192,192,192);stroke-width:10.42px;"/>
            </g>
            <g transform="matrix(1,0,0,1,-41.695439,-649.16027)">
                <circle cx="1620.5" cy="1179.5" r="6.5" style="fill:white;stroke:rgb(192,192,192);stroke-width:10.42px;"/>
            </g>
            <g transform="matrix(1,0,0,1,283.804561,-649.16027)">
                <circle cx="1620.5" cy="1179.5" r="6.5" style="fill:white;stroke:rgb(192,192,192);stroke-width:10.42px;"/>
            </g>
            <g transform="matrix(1,0,0,1,181.304561,-558.32054)">
                <circle cx="1620.5" cy="1179.5" r="6.5" style="fill:white;stroke:rgb(192,192,192);stroke-width:10.42px;"/>
            </g>
            <g transform="matrix(1,0,0,1,189.304561,-341.32054)">
                <circle cx="1620.5" cy="1179.5" r="6.5" style="fill:white;stroke:rgb(192,192,192);stroke-width:10.42px;"/>
            </g>
            <g transform="matrix(1,0,0,1,283.804561,-293.033145)">
                <circle cx="1620.5" cy="1179.5" r="6.5" style="fill:white;stroke:rgb(192,192,192);stroke-width:10.42px;"/>
            </g>
            <g transform="matrix(1,0,0,1,283.804561,-418.32054)">
                <circle cx="1620.5" cy="1179.5" r="6.5" style="fill:white;stroke:rgb(192,192,192);stroke-width:10.42px;"/>
            </g>
            <g transform="matrix(1,0,0,1,283.804561,-531.32054)">
                <circle cx="1620.5" cy="1179.5" r="6.5" style="fill:white;stroke:rgb(192,192,192);stroke-width:10.42px;"/>
            </g>
            <g transform="matrix(1,0,0,1,-184.955264,-649.16027)">
                <circle cx="1620.5" cy="1179.5" r="6.5" style="fill:white;stroke:rgb(192,192,192);stroke-width:10.42px;"/>
            </g>
            <g transform="matrix(1,0,0,1,-334.955264,-649.16027)">
                <circle cx="1620.5" cy="1179.5" r="6.5" style="fill:white;stroke:rgb(192,192,192);stroke-width:10.42px;"/>
            </g>
            <g transform="matrix(1,0,0,1,-170.689576,-386.066289)">
                <circle cx="1620.5" cy="1179.5" r="6.5" style="fill:white;stroke:rgb(192,192,192);stroke-width:10.42px;"/>
            </g>
            <g transform="matrix(1,0,0,1,-16.689576,-366.066289)">
                <circle cx="1620.5" cy="1179.5" r="6.5" style="fill:white;stroke:rgb(192,192,192);stroke-width:10.42px;"/>
            </g>
            <g transform="matrix(1,0,0,1,-89.689576,-293.033145)">
                <circle cx="1620.5" cy="1179.5" r="6.5" style="fill:white;stroke:rgb(192,192,192);stroke-width:10.42px;"/>
            </g>
            <g transform="matrix(1,0,0,1,86.310424,-293.033145)">
                <circle cx="1620.5" cy="1179.5" r="6.5" style="fill:white;stroke:rgb(192,192,192);stroke-width:10.42px;"/>
            </g>
            <g transform="matrix(1,0,0,1,97.310424,-443.066289)">
                <circle cx="1620.5" cy="1179.5" r="6.5" style="fill:white;stroke:rgb(192,192,192);stroke-width:10.42px;"/>
            </g>
            <g transform="matrix(1,0,0,1,-374.660083,-293.033145)">
                <circle cx="1620.5" cy="1179.5" r="6.5" style="fill:white;stroke:rgb(192,192,192);stroke-width:10.42px;"/>
            </g>
            <g transform="matrix(1,0,0,1,-228.886956,-293.033145)">
                <circle cx="1620.5" cy="1179.5" r="6.5" style="fill:white;stroke:rgb(192,192,192);stroke-width:10.42px;"/>
            </g>
            <path d="M1136,526L1245,619" style="fill:none;stroke:rgb(192,192,192);stroke-width:10.42px;"/>
            <path d="M1135,655L1245,619" style="fill:none;stroke:rgb(192,192,192);stroke-width:10.42px;"/>
            <path d="M1245,619L1286,531" style="fill:none;stroke:rgb(192,192,192);stroke-width:10.42px;"/>
            <path d="M1245,619L1442,645" style="fill:none;stroke:rgb(192,192,192);stroke-width:10.42px;"/>
            <path d="M1436,530L1443,645" style="fill:none;stroke:rgb(192,192,192);stroke-width:10.42px;"/>
            <path d="M1288,532L1443,645" style="fill:none;stroke:rgb(192,192,192);stroke-width:10.42px;"/>
            <path d="M1244,621L1341,722" style="fill:none;stroke:rgb(192,192,192);stroke-width:10.42px;"/>
            <path d="M1342,723L1439,647" style="fill:none;stroke:rgb(192,192,192);stroke-width:10.42px;"/>
            <path d="M1443,645L1577,532" style="fill:none;stroke:rgb(192,192,192);stroke-width:10.42px;"/>
            <path d="M1580,528L1630,631" style="fill:none;stroke:rgb(192,192,192);stroke-width:10.42px;"/>
            <path d="M1630,631L1724,529" style="fill:none;stroke:rgb(192,192,192);stroke-width:10.42px;"/>
            <path d="M1438,645L1630,631" style="fill:none;stroke:rgb(192,192,192);stroke-width:10.42px;"/>
            <path d="M1805,624L1724,532" style="fill:none;stroke:rgb(192,192,192);stroke-width:10.42px;"/>
            <path d="M1633,631L1801,622" style="fill:none;stroke:rgb(192,192,192);stroke-width:10.42px;"/>
            <path d="M1802,619L1904,531" style="fill:none;stroke:rgb(192,192,192);stroke-width:10.42px;"/>
            <path d="M1801,621L1905,648" style="fill:none;stroke:rgb(192,192,192);stroke-width:10.42px;"/>
            <path d="M1801,621L1905,758" style="fill:none;stroke:rgb(192,192,192);stroke-width:10.42px;"/>
            <path d="M1803,620L1720,738" style="fill:none;stroke:rgb(192,192,192);stroke-width:10.42px;"/>
            <path d="M1634,630L1722,738" style="fill:none;stroke:rgb(192,192,192);stroke-width:10.42px;"/>
            <path d="M1543,715L1630,632" style="fill:none;stroke:rgb(192,192,192);stroke-width:10.42px;"/>
            <path d="M1439,646L1537,716" style="fill:none;stroke:rgb(192,192,192);stroke-width:10.42px;"/>
            <path d="M1632,632L1605,812" style="fill:none;stroke:rgb(192,192,192);stroke-width:10.42px;"/>
            <path d="M1719,737L1904,761" style="fill:none;stroke:rgb(192,192,192);stroke-width:10.42px;"/>
            <path d="M1811,839L1905,761" style="fill:none;stroke:rgb(192,192,192);stroke-width:10.42px;"/>
            <path d="M1718,738L1809,836" style="fill:none;stroke:rgb(192,192,192);stroke-width:10.42px;"/>
            <path d="M1810,839L1708,886" style="fill:none;stroke:rgb(192,192,192);stroke-width:10.42px;"/>
            <path d="M1718,737L1707,886" style="fill:none;stroke:rgb(192,192,192);stroke-width:10.42px;"/>
            <path d="M1604,813L1719,736" style="fill:none;stroke:rgb(192,192,192);stroke-width:10.42px;"/>
            <path d="M1606,814L1706,886" style="fill:none;stroke:rgb(192,192,192);stroke-width:10.42px;"/>
            <path d="M1538,719L1604,813" style="fill:none;stroke:rgb(192,192,192);stroke-width:10.42px;"/>
            <path d="M1448,792L1538,720" style="fill:none;stroke:rgb(192,192,192);stroke-width:10.42px;"/>
            <path d="M1442,647L1448,792" style="fill:none;stroke:rgb(192,192,192);stroke-width:10.42px;"/>
            <path d="M1343,724L1450,792" style="fill:none;stroke:rgb(192,192,192);stroke-width:10.42px;"/>
            <path d="M1449,795L1604,813" style="fill:none;stroke:rgb(192,192,192);stroke-width:10.42px;"/>
            <path d="M1606,813L1532,886" style="fill:none;stroke:rgb(192,192,192);stroke-width:10.42px;"/>
            <path d="M1450,793L1531,887" style="fill:none;stroke:rgb(192,192,192);stroke-width:10.42px;"/>
            <path d="M1451,793L1393,888" style="fill:none;stroke:rgb(192,192,192);stroke-width:10.42px;"/>
            <path d="M1261,801L1449,794" style="fill:none;stroke:rgb(192,192,192);stroke-width:10.42px;"/>
            <path d="M1811,838L1904,886" style="fill:none;stroke:rgb(192,192,192);stroke-width:10.42px;"/>
            <path d="M1338,722L1260,800" style="fill:none;stroke:rgb(192,192,192);stroke-width:10.42px;"/>
            <path d="M1138,656L1340,723" style="fill:none;stroke:rgb(192,192,192);stroke-width:10.42px;"/>
            <g transform="matrix(1,0,0,1,0,3)">
                <path d="M1137,653L1258,798" style="fill:none;stroke:rgb(192,192,192);stroke-width:10.42px;"/>
            </g>
            <path d="M1260,802L1391,887" style="fill:none;stroke:rgb(192,192,192);stroke-width:10.42px;"/>
            <path d="M1254,803L1247,886" style="fill:none;stroke:rgb(192,192,192);stroke-width:10.42px;"/>
            <path d="M1137,887L1253,804" style="fill:none;stroke:rgb(192,192,192);stroke-width:10.42px;"/>
            <path d="M1137,772L1253,797" style="fill:none;stroke:rgb(192,192,192);stroke-width:10.42px;"/>
            <g transform="matrix(0,0.626866,-0.542373,0,1594.372881,284.462687)">
                <path d="M388.5,882L422,941L355,941L388.5,882Z" style="fill:rgb(237,237,237);"/>
            </g>
            <g transform="matrix(0,0.626866,-0.542373,0,1594.372881,403.79602)">
                <path d="M388.5,882L422,941L355,941L388.5,882Z" style="fill:rgb(237,237,237);"/>
            </g>
            <g transform="matrix(0,0.626866,-0.542373,0,1594.372881,523.129353)">
                <path d="M388.5,882L422,941L355,941L388.5,882Z" style="fill:rgb(237,237,237);"/>
            </g>
            <g transform="matrix(0,0.626866,-0.542373,0,1594.372881,642.462687)">
                <path d="M388.5,882L422,941L355,941L388.5,882Z" style="fill:rgb(237,237,237);"/>
            </g>
            <g transform="matrix(1,0,0,1,-67,34)">
                <path d="M1216,366L1216,472" style="fill:none;"/>
                <g transform="matrix(1,-0,-0,1,1003.791667,111.474531)">
                    <path d="M227.833,329.275L212.208,360.525L196.583,329.275L227.833,329.275Z" style="fill:rgb(237,237,237);"/>
                    <path d="M212.208,254.525L212.208,335.525" style="fill:none;stroke:rgb(237,237,237);stroke-width:10.42px;stroke-linecap:butt;"/>
                </g>
            </g>
            <g transform="matrix(1,0,0,1,118.75,34)">
                <path d="M1216,366L1216,472" style="fill:none;"/>
                <g transform="matrix(1,-0,-0,1,818.041667,111.474531)">
                    <path d="M413.583,329.275L397.958,360.525L382.333,329.275L413.583,329.275Z" style="fill:rgb(237,237,237);"/>
                    <path d="M397.958,254.525L397.958,335.525" style="fill:none;stroke:rgb(237,237,237);stroke-width:10.42px;stroke-linecap:butt;"/>
                </g>
            </g>
            <g transform="matrix(1,0,0,1,304.5,34)">
                <path d="M1216,366L1216,472" style="fill:none;"/>
                <g transform="matrix(1,-0,-0,1,632.291667,111.474531)">
                    <path d="M599.333,329.275L583.708,360.525L568.083,329.275L599.333,329.275Z" style="fill:rgb(237,237,237);"/>
                    <path d="M583.708,254.525L583.708,335.525" style="fill:none;stroke:rgb(237,237,237);stroke-width:10.42px;stroke-linecap:butt;"/>
                </g>
            </g>
            <g transform="matrix(1,0,0,1,676,34)">
                <path d="M1216,366L1216,472" style="fill:none;"/>
                <g transform="matrix(1,-0,-0,1,260.791667,111.474531)">
                    <path d="M970.833,329.275L955.208,360.525L939.583,329.275L970.833,329.275Z" style="fill:rgb(237,237,237);"/>
                    <path d="M955.208,254.525L955.208,335.525" style="fill:none;stroke:rgb(237,237,237);stroke-width:10.42px;stroke-linecap:butt;"/>
                </g>
            </g>
            <g transform="matrix(1,0,0,1,490.25,34)">
                <path d="M1216,366L1216,472" style="fill:none;"/>
                <g transform="matrix(1,-0,-0,1,446.541667,111.474531)">
                    <path d="M785.083,329.275L769.458,360.525L753.833,329.275L785.083,329.275Z" style="fill:rgb(237,237,237);"/>
                    <path d="M769.458,254.525L769.458,335.525" style="fill:none;stroke:rgb(237,237,237);stroke-width:10.42px;stroke-linecap:butt;"/>
                </g>
            </g>
        </g>
    </g>
</svg>
