<?xml version="1.0" encoding="UTF-8" standalone="no"?>
<!DOCTYPE svg PUBLIC "-//W3C//DTD SVG 1.1//EN" "http://www.w3.org/Graphics/SVG/1.1/DTD/svg11.dtd">
<svg width="100%" height="100%" viewBox="0 0 1147 555" version="1.1" xmlns="http://www.w3.org/2000/svg" xmlns:xlink="http://www.w3.org/1999/xlink" xml:space="preserve" xmlns:serif="http://www.serif.com/" style="fill-rule:evenodd;clip-rule:evenodd;stroke-linecap:square;stroke-linejoin:round;stroke-miterlimit:1.5;">
    <g transform="matrix(1,0,0,1,-1097.060729,-1101.591053)">
        <g transform="matrix(1,0,0,1,0,-29)">
            <g transform="matrix(0.23221,0,0,0.23221,1539.227396,1313.45648)">
                <g transform="matrix(1,0,0,1,-1904.166667,-787.5)">
                    <g transform="matrix(4.166667,0,0,4.166667,-9117.461,-6100.174533)">
                        <g transform="matrix(0.736986,0,0,0.736986,2645.122191,1652.710399)">
                            <g transform="matrix(1,0,0,1,-620,-256)">
                                <g>
                                    <clipPath id="_clip1">
                                        <rect x="0" y="0" width="1240" height="512"/>
                                    </clipPath>
                                    <g clip-path="url(#_clip1)">
                                        <g transform="matrix(3.938908,0,0,3.9042,-622.544525,-420.781388)">
                                            <path d="M353.912,110L471,110L471,237L357.877,237C334.835,221.741 299.809,199.926 269.248,190.764C237.128,181.135 190.305,179.131 160,178.454L160,165.935C190.305,165.257 237.128,163.254 269.248,153.625C298.105,144.974 330.942,125.042 353.912,110Z" style="fill:none;"/>
                                            <path d="M353.912,110L471,110L471,237L357.877,237C334.835,221.741 299.809,199.926 269.248,190.764C237.128,181.135 190.305,179.131 160,178.454L160,165.935C190.305,165.257 237.128,163.254 269.248,153.625C298.105,144.974 330.942,125.042 353.912,110Z" style="fill:none;stroke:rgb(237,237,237);stroke-width:0.85px;"/>
                                        </g>
                                        <g transform="matrix(3.938908,0,0,3.9042,-622.544525,-420.781388)">
                                            <path d="M283.002,110L353.912,110C330.942,125.042 298.105,144.974 269.248,153.625C237.128,163.254 190.305,165.257 160,165.935L160,148.945C178.815,147.203 204.862,144.34 221.266,139.793C234.589,136.1 261.988,121.587 283.002,110Z" style="fill:none;"/>
                                            <path d="M283.002,110L353.912,110C330.942,125.042 298.105,144.974 269.248,153.625C237.128,163.254 190.305,165.257 160,165.935L160,148.945C178.815,147.203 204.862,144.34 221.266,139.793C234.589,136.1 261.988,121.587 283.002,110Z" style="fill:none;stroke:rgb(237,237,237);stroke-width:0.8px;"/>
                                        </g>
                                        <g transform="matrix(3.938908,0,0,3.9042,-622.544525,-420.781388)">
                                            <path d="M357.877,237L287.72,237C266.278,225.094 235.612,208.572 221.266,204.595C204.862,200.049 178.815,197.186 160,195.444L160,178.454C190.305,179.131 237.128,181.135 269.248,190.764C299.809,199.926 334.835,221.741 357.877,237Z" style="fill:none;"/>
                                            <path d="M357.877,237L287.72,237C266.278,225.094 235.612,208.572 221.266,204.595C204.862,200.049 178.815,197.186 160,195.444L160,178.454C190.305,179.131 237.128,181.135 269.248,190.764C299.809,199.926 334.835,221.741 357.877,237Z" style="fill:none;stroke:rgb(237,237,237);stroke-width:0.85px;"/>
                                        </g>
                                        <g transform="matrix(3.938908,0,0,3.9042,-622.544525,-420.781388)">
                                            <path d="M221.058,110L283.002,110C261.988,121.587 234.589,136.1 221.266,139.793C204.862,144.34 178.815,147.203 160,148.945L160,136.674C169.979,134.769 181.859,131.991 191.054,128.011C200.707,123.833 211.992,116.421 221.058,110Z" style="fill:none;"/>
                                            <path d="M221.058,110L283.002,110C261.988,121.587 234.589,136.1 221.266,139.793C204.862,144.34 178.815,147.203 160,148.945L160,136.674C169.979,134.769 181.859,131.991 191.054,128.011C200.707,123.833 211.992,116.421 221.058,110Z" style="fill:none;stroke:rgb(237,237,237);stroke-width:0.8px;"/>
                                        </g>
                                        <g transform="matrix(3.938908,0,0,3.9042,-622.544525,-420.781388)">
                                            <path d="M287.72,237L224.703,237C215.164,230.093 202.05,221.137 191.054,216.378C181.859,212.398 169.979,209.62 160,207.714L160,195.444C178.815,197.186 204.862,200.049 221.266,204.595C235.612,208.572 266.278,225.094 287.72,237Z" style="fill:none;"/>
                                            <path d="M287.72,237L224.703,237C215.164,230.093 202.05,221.137 191.054,216.378C181.859,212.398 169.979,209.62 160,207.714L160,195.444C178.815,197.186 204.862,200.049 221.266,204.595C235.612,208.572 266.278,225.094 287.72,237Z" style="fill:none;stroke:rgb(237,237,237);stroke-width:0.8px;"/>
                                        </g>
                                        <g transform="matrix(3.938908,0,0,3.9042,-622.544525,-420.781388)">
                                            <path d="M224.703,237L160,237L160,207.714C169.979,209.62 181.859,212.398 191.054,216.378C202.05,221.137 215.164,230.093 224.703,237Z" style="fill:none;"/>
                                            <path d="M224.703,237L160,237L160,207.714C169.979,209.62 181.859,212.398 191.054,216.378C202.05,221.137 215.164,230.093 224.703,237Z" style="fill:none;stroke:rgb(237,237,237);stroke-width:0.85px;"/>
                                        </g>
                                        <g transform="matrix(3.938908,0,0,3.9042,-622.544525,-420.781388)">
                                            <path d="M160,136.674L160,110L221.058,110C211.992,116.421 200.707,123.833 191.054,128.011C181.859,131.991 169.979,134.769 160,136.674Z" style="fill:none;"/>
                                            <path d="M160,136.674L160,110L221.058,110C211.992,116.421 200.707,123.833 191.054,128.011C181.859,131.991 169.979,134.769 160,136.674Z" style="fill:none;stroke:rgb(237,237,237);stroke-width:0.8px;"/>
                                        </g>
                                        <g id="アートボード1" transform="matrix(1,0,0,1,-1,0)">
                                            <rect x="1" y="0" width="1240" height="512" style="fill:none;"/>
                                            <g>
                                                <clipPath id="_clip2">
                                                    <rect x="1" y="0" width="1240" height="512"/>
                                                </clipPath>
                                                <g clip-path="url(#_clip2)">
                                                    <g transform="matrix(1.002443,0,0,1,0.987785,-2)">
                                                        <rect x="5" y="7" width="1228" height="503" style="fill:none;stroke:rgb(237,237,237);stroke-width:10.4px;stroke-linecap:round;"/>
                                                    </g>
                                                </g>
                                            </g>
                                        </g>
                                    </g>
                                </g>
                            </g>
                        </g>
                    </g>
                </g>
            </g>
        </g>
        <g transform="matrix(1,0,0,1,0,-29)">
            <g transform="matrix(1,0,0,1,980,1299.71875)">
                <g transform="matrix(100,0,0,100,1059.070312,347)">
                </g>
                <text x="512px" y="347px" style="font-family:'Inter-Regular', 'Inter';font-size:100px;fill:rgb(237,237,237);">Expor<tspan x="787.098px " y="347px ">t</tspan> 3MF</text>
            </g>
        </g>
        <g transform="matrix(1,0,0,1,0,-29)">
            <g transform="matrix(1,0,0,1,197,84)">
                <g transform="matrix(1,-0,-0,1,900.060729,1046.591053)">
                    <path d="M1025.939,458.409L1075.939,483.409L1025.939,508.409L1025.939,458.409Z" style="fill:rgb(237,237,237);"/>
                    <path d="M973.939,483.409L1035.939,483.409" style="fill:none;stroke:rgb(237,237,237);stroke-width:16.67px;stroke-linecap:butt;"/>
                </g>
            </g>
        </g>
    </g>
</svg>
