<?xml version="1.0" encoding="UTF-8" standalone="no"?>
<!DOCTYPE svg PUBLIC "-//W3C//DTD SVG 1.1//EN" "http://www.w3.org/Graphics/SVG/1.1/DTD/svg11.dtd">
<svg width="100%" height="100%" viewBox="0 0 1773 1166" version="1.1" xmlns="http://www.w3.org/2000/svg" xmlns:xlink="http://www.w3.org/1999/xlink" xml:space="preserve" xmlns:serif="http://www.serif.com/" style="fill-rule:evenodd;clip-rule:evenodd;stroke-linecap:round;stroke-linejoin:round;stroke-miterlimit:1.5;">
    <g transform="matrix(1,0,0,1,-571.136362,-1460.2)">
        <g transform="matrix(1,0,0,1,563,-749)">
            <g transform="matrix(1,0,0,1,496.67674,1604.246939)">
                <path d="M1280,1020L1063,1020L952.49,1130.51L952.49,1348L1170,1347L1280.157,1236.843L1280,1020Z" style="fill:rgb(237,237,237);"/>
                <path d="M1114.986,1086.5L1115,1086.5L1201.5,1086.5L1201.5,1132.5L1116,1132.5L1115.987,1132.5C1105.301,1132.775 1093.944,1136.967 1086.564,1146.701C1081.658,1153.173 1078.504,1162.101 1078.5,1173.977L1078.5,1174C1078.504,1185.876 1081.658,1194.804 1086.564,1201.276C1093.944,1211.011 1105.301,1215.203 1115.987,1215.477L1116,1215.477L1201.5,1215.477L1201.5,1261.477L1115,1261.477L1114.986,1261.478C1081.132,1262.44 1031.334,1232.476 1032.553,1174.032L1032.554,1173.989L1032.553,1173.946C1031.334,1115.501 1081.132,1085.537 1114.986,1086.5Z" style="fill:rgb(24,24,24);"/>
            </g>
        </g>
        <g transform="matrix(1,0,0,1,563,-749)">
            <g transform="matrix(0.689873,0,0,0.689873,761.696203,1936.010127)">
                <g transform="matrix(1.006369,0,0,0.994047,-494.43949,-74.184011)">
                    <path d="M1953,585.59L1953,831.41C1953,893.55 1903.168,944 1841.789,944L1593.211,944C1531.832,944 1482,893.55 1482,831.41L1482,585.59C1482,523.45 1531.832,473 1593.211,473L1841.789,473C1903.168,473 1953,523.45 1953,585.59Z" style="fill:rgb(237,237,237);"/>
                </g>
                <g transform="matrix(1,0,0,1,-251,-904)">
                    <path d="M1476,1398L1476,1531L1377,1570L1377,1398L1476,1398Z" style="fill:rgb(24,24,24);"/>
                </g>
                <g transform="matrix(1,0,0,1,-140,-904)">
                    <path d="M1476,1398L1477,1526L1377,1486L1377,1398L1476,1398Z" style="fill:rgb(24,24,24);"/>
                </g>
                <g transform="matrix(-1,0,-0,-1,2713,2165)">
                    <path d="M1476,1398L1476,1571L1377,1531L1377,1398L1476,1398Z" style="fill:rgb(24,24,24);"/>
                </g>
                <g transform="matrix(-1,0,-0,-1,2602,2165)">
                    <path d="M1476,1398L1476,1484L1377,1524L1377,1398L1476,1398Z" style="fill:rgb(24,24,24);"/>
                </g>
            </g>
        </g>
        <g transform="matrix(1,0,0,1,563,-749)">
            <g transform="matrix(0.706751,0,0,0.706751,785.394515,2584.909774)">
                <g transform="matrix(1.006369,0,0,0.994047,-557.43949,179.815989)">
                    <path d="M1953,585.59L1953,831.41C1953,893.55 1903.168,944 1841.789,944L1593.211,944C1531.832,944 1482,893.55 1482,831.41L1482,585.59C1482,523.45 1531.832,473 1593.211,473L1841.789,473C1903.168,473 1953,523.45 1953,585.59Z" style="fill:rgb(237,237,237);"/>
                </g>
                <g transform="matrix(1.010714,0,0,1.032374,-155.962633,-173.289026)">
                    <path d="M1227.623,1097.869C1202.518,1072.74 1187,1038.155 1187,1000C1187,923.284 1249.732,861 1327,861C1365.3,861 1400.029,876.303 1425.317,901.082L1227.623,1097.869Z" style="fill:rgb(24,24,24);"/>
                </g>
                <g transform="matrix(1.010714,0,0,1.032374,-181.888006,-119.04425)">
                    <path d="M1425.317,901.082C1451.045,926.292 1467,961.311 1467,1000C1467,1076.716 1404.268,1139 1327,1139C1288.162,1139 1252.996,1123.264 1227.623,1097.869L1425.317,901.082Z" style="fill:rgb(24,24,24);"/>
                </g>
            </g>
        </g>
        <g transform="matrix(1,0,0,1,563,-749)">
            <g transform="matrix(0.335524,0,0,0.335524,382.553028,2769.488063)">
                <g transform="matrix(1,0,0,1,-1115.916667,-1091.291667)">
                    <g transform="matrix(4.166667,0,0,4.166667,0,0)">
                        <path d="M198.83,423.89C198.83,424.08 198.83,424.28 198.82,424.49C198.77,425.45 198.61,426.39 198.36,427.05L198.12,427.69L197.59,427.67C197.48,427.67 197.35,427.66 197.29,427.66C196.64,427.63 191.45,427.56 191.22,427.56C189.05,427.56 187.27,427.65 185.82,427.82C184.29,428 182.99,428.27 181.96,428.67C180.69,429.13 179.77,429.79 179.12,430.64C178.51,431.45 178.19,432.46 178.16,433.7C178.15,433.78 178.15,433.85 178.15,433.89L178.15,461.13L177.29,461.33C175.16,461.81 172.92,461.81 170.79,461.33L169.91,461.13L169.91,433.1C169.91,430.19 170.82,427.77 172.63,425.91C174.15,424.36 176.29,423.17 179.02,422.39C180.87,421.83 183.01,421.46 185.5,421.25C187.51,421.11 192.99,421.12 193.52,421.14L193.67,421.14C194.53,421.15 195.39,421.17 196.23,421.2C196.98,421.23 197.72,421.26 198.45,421.31L198.64,421.97C198.78,422.46 198.85,423.14 198.85,423.9L198.83,423.89Z" style="fill:white;fill-rule:nonzero;"/>
                        <path d="M248.63,433.81L248.63,444.19L247.62,444.21C242.04,444.41 222.33,444.4 219.45,444.39L219.22,443.74C219.17,443.59 219.11,443.43 219.08,443.23C218.98,442.78 218.92,442.29 218.9,441.76C218.89,441.55 218.89,441.32 218.89,441.12C218.9,440.62 218.95,440.12 219.05,439.64C219.09,439.44 219.14,439.25 219.21,439.08L219.44,438.47L240.48,438.41L240.48,434.11C240.48,430.12 237.86,428.31 231.43,427.86C230.48,427.77 229.45,427.75 228.69,427.73C228.29,427.72 227.9,427.72 227.5,427.72C219.37,427.72 214.32,428.79 214.32,434.11L214.32,448.9C214.32,453.62 218.03,455.29 228.51,455.29C235.51,455.29 239.83,454.89 245.34,454.14L246.24,454.03L246.49,454.91C246.93,456.34 246.93,458.34 246.49,459.78L246.3,460.43L245.62,460.53C238.89,461.44 233.39,461.85 227.78,461.85C222.17,461.85 206.09,461.85 206.09,449.83L206.09,433.4C206.09,429.42 207.79,426.38 211.18,424.38C216.37,421.25 224.18,421.25 227.51,421.25C227.9,421.25 228.27,421.25 228.66,421.26C229.61,421.27 230.5,421.32 231.37,421.39C242.67,422.14 248.64,426.44 248.64,433.83L248.63,433.81Z" style="fill:white;fill-rule:nonzero;"/>
                        <path d="M117.14,444.61L117.14,449.02C117.14,461.83 99.92,461.83 94.26,461.83C87.18,461.83 80.9,461.43 75.59,460.65L74.93,460.55L74.73,459.92C74.29,458.54 74.29,456.41 74.73,454.95L74.98,454.11L75.86,454.2C82.99,454.91 88.33,455.2 94.27,455.2C104.75,455.2 108.82,453.31 108.82,448.45L108.82,445.27C108.82,442.06 107.05,441.51 100.91,440.09L87.56,437.03C79.09,435 74.5,432.72 74.5,426.49L74.5,422.37C74.5,413.91 82.51,409.64 98.3,409.64C104.35,409.64 109.67,409.85 115.89,410.88L116.54,410.99L116.73,411.6C117.16,412.97 117.16,415.01 116.73,416.36L116.47,417.21L115.61,417.11C109.19,416.37 104.52,416.09 98.38,416.09C87.19,416.09 82.84,417.94 82.84,422.71L82.84,425.39C82.84,428.4 84.54,429.22 90.87,430.73L104.1,433.94C112.22,435.83 117.15,437.5 117.15,444.6L117.14,444.61Z" style="fill:white;fill-rule:nonzero;"/>
                        <path d="M158.44,460.41L158.24,461.07L157.55,461.14C154.79,461.49 151.75,461.82 148.21,461.82C138.1,461.82 132.53,457.53 132.53,449.74L132.53,428.62L123.87,428.62L123.63,427.91C123.2,426.59 123.2,424.78 123.63,423.47L123.88,422.77L132.53,422.48L132.53,412.45L133.43,412.3C135.35,412 137.94,412 139.87,412.3L140.76,412.45L140.76,422.37L158.17,422.37L158.42,423.07C158.86,424.29 158.86,426.59 158.42,427.88L158.17,428.61L140.76,428.61L140.76,448.49C140.76,454.1 144.39,455.26 149.83,455.26C152.59,455.26 154.64,455.08 157.27,454.77L158.19,454.64L158.44,455.53C158.85,457.05 158.85,458.95 158.43,460.39L158.44,460.41Z" style="fill:white;fill-rule:nonzero;"/>
                        <path d="M296.26,454.73C296.67,456.17 296.67,458.18 296.26,459.62L296.06,460.26L295.4,460.36C289.42,461.26 284.42,461.68 279.17,461.68C273.92,461.68 258.49,461.68 258.49,449.75L258.49,433.08C258.49,421.09 274.05,421.09 279.17,421.09C285.51,421.09 290.36,421.42 295.4,422.18L296.06,422.28L296.26,422.92C296.67,424.36 296.67,426.29 296.26,427.73L295.98,428.59L295.08,428.48C289.82,427.77 286.11,427.54 279.8,427.54C270.26,427.54 266.72,429.29 266.72,434.02L266.72,448.74C266.72,454.07 271.72,455.13 279.8,455.13C286.22,455.13 289.83,454.75 295.06,453.98L295.97,453.85L296.25,454.73L296.26,454.73Z" style="fill:white;fill-rule:nonzero;"/>
                        <path d="M342.75,448.66L342.75,451.2C342.75,458.14 336.12,461.81 323.6,461.81C319.98,461.81 313,461.66 307.01,460.64L306.38,460.53L306.17,459.95C305.64,458.41 305.64,456.5 306.17,454.98L306.46,454.14L307.32,454.27C312.18,454.93 317.51,455.28 323.15,455.28C331.22,455.28 334.5,453.93 334.5,450.61L334.5,449.09C334.5,446.85 332.91,446.21 327.8,445.28L317.95,443.46C311.87,442.33 305.67,440.38 305.67,434.39L305.67,431.71C305.67,424.75 312.6,421.22 326.26,421.22C331.1,421.22 335.45,421.53 341.27,422.31L341.92,422.4L342.15,423.01C342.68,424.54 342.68,426.38 342.15,427.92L341.86,428.73L341,428.62C335.31,427.86 331.81,427.62 326.63,427.62C318.77,427.62 313.91,428.4 313.91,432.27L313.91,433.72C313.91,435.55 315.51,436.44 320.53,437.39L330.29,439.13C337.35,440.46 342.76,441.99 342.76,448.64L342.75,448.66Z" style="fill:white;fill-rule:nonzero;"/>
                        <path d="M402.27,445.55L402.27,448.81C402.27,457.44 393.54,461.82 376.31,461.82C368.6,461.82 362.48,461.43 357.6,460.64L356.96,460.55L356.77,459.92C356.33,458.55 356.33,456.39 356.77,455L357.02,454.19L357.87,454.28C364.29,454.96 369.37,455.22 376.03,455.22C388.76,455.22 393.95,453.23 393.95,448.38L393.95,445.42C393.95,440.23 388.9,438.2 375.94,438.2L362.56,438.2L362.32,437.46C361.89,436.12 361.89,434.05 362.33,432.65L362.54,431.89L375.2,431.89C387.86,431.89 393.02,430.04 393.02,425.49L393.02,422.87C393.02,418.02 388.1,416.05 376.03,416.05C370.12,416.05 365.37,416.11 358.1,417.04L357.19,417.17L356.94,416.31C356.53,414.87 356.53,412.91 356.94,411.56L357.15,410.91L357.81,410.82C364.95,409.86 370.38,409.65 376.31,409.65C382.24,409.65 401.37,409.65 401.37,422.52L401.37,425.41C401.37,429.52 399.29,432.57 395.17,434.46L394.22,434.9L395.18,435.31C399.89,437.38 402.27,440.82 402.27,445.56L402.27,445.55Z" style="fill:white;fill-rule:nonzero;"/>
                        <path d="M437.46,410.57L412.46,410.57L412.46,460.88L437.46,460.88C443.34,460.88 461.23,460.88 461.23,446.54L461.23,424.89C461.23,412.05 447.66,410.57 437.46,410.57ZM452.81,445.83C452.81,451.92 448.65,454.19 437.46,454.19L420.91,454.19L420.91,417.17L437.46,417.17C448.65,417.17 452.81,419.46 452.81,425.6L452.81,445.83Z" style="fill:white;fill-rule:nonzero;"/>
                        <path d="M437.48,410.53L412.48,410.53L412.48,460.84L437.48,460.84C443.36,460.84 461.25,460.84 461.25,446.5L461.25,424.85C461.25,412.01 447.68,410.53 437.48,410.53ZM452.84,445.79C452.84,451.88 448.68,454.15 437.49,454.15L420.94,454.15L420.94,417.13L437.49,417.13C448.68,417.13 452.84,419.42 452.84,425.56L452.84,445.79Z" style="fill:white;fill-rule:nonzero;"/>
                    </g>
                    <g transform="matrix(4.166667,0,0,4.166667,0,0)">
                        <path d="M453.39,376.77C451.58,378.59 449.07,379.79 446.13,379.79L89.38,379.79C86.46,379.79 83.93,378.59 82.13,376.77C81.72,376.35 81.35,375.9 81.05,375.43L444.19,375.43C447.57,375.43 448.96,371.41 446.84,369.26C446.59,369.01 446.3,368.78 445.96,368.59L346.03,313.17C342.41,311.11 339.1,308.59 336.2,305.67C330.46,299.96 326.25,292.76 324.15,284.86L265.7,65.16C265.7,65.16 265.69,65.11 265.68,65.09L264.98,62.42C265.31,62.3 265.66,62.22 266.01,62.16C266.3,62.1 266.61,62.05 266.91,62.04C266.91,62.04 268.21,61.97 268.27,61.99C269.09,62 269.9,62.12 270.68,62.35C271.9,62.69 273.06,63.28 274.11,64.09C275.18,64.92 276.11,65.96 276.81,67.27L454.82,364.4C457.38,368.64 456.41,373.63 453.38,376.75L453.39,376.77Z" style="fill:white;fill-rule:nonzero;"/>
                    </g>
                    <g transform="matrix(4.166667,0,0,4.166667,0,0)">
                        <path d="M446.85,369.26L438.22,364.59L346.04,313.18L445.97,368.6C446.31,368.79 446.6,369.02 446.85,369.27L446.85,369.26Z" style="fill:white;fill-rule:nonzero;"/>
                    </g>
                    <g transform="matrix(4.166667,0,0,4.166667,0,0)">
                        <path d="M444.19,375.43L81.05,375.43C80.66,374.89 80.74,375.05 80.37,374.4C79.95,373.67 79.72,372.87 79.58,372.3L82.43,371.48L90.06,369.26L303.26,307.64C307.15,306.52 310.27,303.98 312.21,300.72L312.22,300.72C313.64,298.35 314.44,295.59 314.44,292.75C314.44,291.45 314.28,290.13 313.92,288.82L256.43,73.22C256.27,72.62 256.35,71.99 256.68,71.45L259.29,67.12L259.33,67.04C260.05,65.85 260.97,64.79 262.07,63.95C263.36,62.96 265.23,63.57 265.69,65.11C265.7,65.13 265.7,65.16 265.71,65.18L324.16,284.88C326.26,292.78 330.47,299.98 336.21,305.69C339.11,308.61 342.42,311.14 346.04,313.19L445.97,368.61C446.31,368.8 446.6,369.03 446.85,369.28C448.96,371.43 447.58,375.45 444.2,375.45L444.19,375.43Z" style="fill:rgb(35,24,21);fill-rule:nonzero;"/>
                    </g>
                    <g transform="matrix(4.166667,0,0,4.166667,0,0)">
                        <path d="M312.23,300.71L312.23,300.72L312.22,300.72L83.8,367.98L255.44,78.63L312.23,300.71Z" style="fill:white;fill-rule:nonzero;"/>
                    </g>
                    <g transform="matrix(4.166667,0,0,4.166667,0,0)">
                        <path d="M313.99,288.8L258.61,81.15L256.24,72.25L80.28,365.95C78.88,368.27 79.41,372.1 79.59,372.31L303.31,307.63C311.35,305.33 316.14,296.88 313.98,288.81L313.99,288.8ZM272.53,161.96L280.99,194.14C281.66,196.7 279.15,198.97 276.53,198.15L253.67,191.02C251.56,190.35 250.59,188.02 251.67,186.17L266.06,161.13C267.59,158.46 271.73,159 272.52,161.96L272.53,161.96ZM200,253C202.17,252.18 204.22,254.43 203.09,256.39L187.21,284.02C186.08,286 182.97,285.48 182.58,283.24L178.93,262.97C178.74,261.85 179.38,260.76 180.47,260.34L200,252.99L200,253ZM185.98,247.35L201.01,221.21C202.13,219.27 205.15,219.77 205.58,221.95L209.08,239.9C209.42,241.67 208.43,243.42 206.69,244.07L189.04,250.72C186.9,251.52 184.86,249.29 185.97,247.35L185.98,247.35ZM193.63,287.11L209.54,259.44C211.27,256.44 215.81,256.58 217.38,259.69L229.02,282.9C230.3,285.45 228.71,288.45 225.82,288.91L198.26,293.38C194.61,293.97 191.84,290.23 193.64,287.11L193.63,287.11ZM218.69,250.23C217.86,248.58 218.98,246.65 220.86,246.44L253.15,243.09C255.38,242.86 256.97,245.15 255.89,247.03L237.75,278.57C236.67,280.45 233.82,280.37 232.86,278.42L218.7,250.23L218.69,250.23ZM227.33,240.47C224.26,240.78 222.07,237.63 223.57,235.05L241.11,204.52C242.66,201.83 246.78,202.09 247.98,204.97L259.46,232.45C260.4,234.7 258.87,237.18 256.38,237.44L227.33,240.48L227.33,240.47ZM245.49,149.19L261.27,148.34C263.04,148.24 264.24,150.06 263.38,151.56L249.25,176.13C248.53,177.4 246.54,177.02 246.36,175.57L243.39,151.58C243.24,150.35 244.19,149.25 245.49,149.18L245.49,149.19ZM251.68,198.94C250.89,197.06 252.73,195.15 254.73,195.78L277.33,202.84C279.07,203.39 279.88,205.32 278.99,206.85L268.03,225.9C266.86,227.94 263.72,227.75 262.81,225.56L251.67,198.94L251.68,198.94ZM262.09,122.33L266.86,140.46C267.2,141.71 266.26,142.93 264.94,143.01L249.25,143.86C247.57,143.94 246.44,142.21 247.25,140.81L258.17,121.82C259.11,120.2 261.63,120.53 262.1,122.34L262.09,122.33ZM241.3,106.18L252.29,87.22C253.22,85.6 255.74,85.95 256.19,87.77L260.27,104.17C260.71,105.94 259.44,107.67 257.56,107.85L243.39,109.21C241.69,109.37 240.49,107.62 241.32,106.18L241.3,106.18ZM241.03,114.2L253.96,112.88C255.06,112.77 255.87,113.92 255.32,114.86L243.72,135.02C243.22,135.89 241.83,135.63 241.7,134.62L239.42,116.14C239.3,115.17 240.02,114.3 241.01,114.2L241.03,114.2ZM238.34,162.43L241.33,186.7C241.48,187.89 240.78,189.02 239.64,189.47L217.81,198.04C216.32,198.63 214.89,197.07 215.67,195.72L235.17,161.81C235.96,160.42 238.14,160.84 238.35,162.42L238.34,162.43ZM219.96,143.02L232.51,121.35C233.06,120.41 234.55,120.7 234.69,121.77L237.43,142.87C237.58,144.04 236.68,145.08 235.47,145.15L221.84,145.9C220.26,146 219.18,144.36 219.96,143.02ZM216.82,154.11C216.96,153.17 217.75,152.45 218.73,152.39L231.13,151.63C232.48,151.55 233.41,152.94 232.75,154.07L214.35,186.06C213.87,186.92 212.51,186.48 212.65,185.51L216.82,154.11ZM233.11,198.52C234.51,197.97 235.85,199.43 235.13,200.7L216.82,232.53C216.1,233.8 214.12,233.47 213.85,232.05L209.73,210.94C209.38,209.18 210.36,207.45 212.08,206.78L233.11,198.52ZM195.02,186.31L209.29,161.68C209.78,160.85 211.1,161.27 210.98,162.21L206.62,195.85C206.44,197.17 204.84,197.8 203.76,196.95L195.98,190.95C194.54,189.83 194.13,187.86 195.03,186.3L195.02,186.31ZM179.63,213.12L189.62,195.88C190.33,194.64 192.03,194.33 193.18,195.23L201.63,201.75C202.71,202.58 202.54,204.2 201.32,204.8L181.12,214.61C180.14,215.09 179.1,214.04 179.63,213.12ZM176.98,222.66L194.32,214.05C195.97,213.22 197.75,214.98 196.84,216.56L179.93,245.96C179.21,247.24 177.19,246.81 177.07,245.35L175.43,225.36C175.34,224.24 175.95,223.18 176.98,222.67L176.98,222.66ZM174.8,275.12L178.33,294.72C178.66,296.52 177.69,298.3 175.99,299.08L155.86,308.21C153.8,309.15 151.7,306.98 152.79,305.06L170.44,274.38C171.5,272.53 174.42,273 174.8,275.12ZM158.26,249.21L168.33,232.01C168.88,231.1 170.33,231.41 170.42,232.47L172.22,254.25C172.33,255.57 170.98,256.55 169.7,256.09L159.53,252.49C158.15,252 157.54,250.43 158.26,249.21ZM138.21,283.2L152.6,258.63C153.51,257.08 155.46,256.39 157.21,257.02L166.56,260.33C167.86,260.78 168.14,262.43 167.06,263.26L139.56,284.32C138.78,284.91 137.72,284.03 138.21,283.2ZM135.43,293.35L161.04,273.6C161.83,273 162.92,273.89 162.42,274.73L143.67,306.53C143,307.66 141.28,307.62 140.66,306.46L134.91,295.82C134.45,294.97 134.68,293.94 135.44,293.35L135.43,293.35ZM114.57,323.29L127.23,301.69C128.01,300.37 130.01,300.4 130.76,301.76L137.15,313.41C137.72,314.45 137.27,315.73 136.17,316.2L116.07,324.88C115.05,325.33 114.01,324.24 114.57,323.29ZM114.16,354.93L97.52,360.07C95.69,360.64 94.09,358.73 95.03,357.13L106.11,338.23C106.94,336.8 109.12,336.88 109.86,338.37L116.01,350.8C116.83,352.45 115.96,354.4 114.17,354.94L114.16,354.93ZM118.2,345.41L112.67,334.04C112.25,333.17 112.64,332.12 113.56,331.72L131.1,324.02C132.05,323.6 133.01,324.61 132.49,325.49L120.67,345.51C120.11,346.45 118.68,346.38 118.2,345.4L118.2,345.41ZM150.49,344.71L131.05,350.75C129.09,351.35 127.34,349.32 128.34,347.59L139.61,328C140.48,326.49 142.73,326.5 143.59,328.03L151.59,342.04C152.18,343.06 151.64,344.36 150.49,344.71ZM154.51,335.48L146.24,320.98C145.75,320.11 146.1,319.03 147.03,318.62L169.51,308.42C171.06,307.71 172.66,309.35 171.83,310.79L157.63,335.49C156.95,336.68 155.19,336.66 154.52,335.48L154.51,335.48ZM204.37,327.03L171.18,337.06C168.25,337.95 165.67,334.91 167.17,332.32L181.85,307.04C182.89,305.24 185.38,304.82 187.02,306.17L205.53,321.42C207.56,323.1 206.91,326.26 204.37,327.04L204.37,327.03ZM210.01,317.6L192.28,303.33C190.88,302.19 191.48,299.98 193.29,299.69L223.77,294.74C225.86,294.41 227.42,296.54 226.4,298.31L215.9,316.56C214.73,318.6 211.89,319.11 210.01,317.6ZM288.01,302.27L226.32,321.32C224.17,321.99 222.24,319.75 223.35,317.84L234.88,297.78C236.62,294.74 240.09,293.01 243.68,293.35L287.46,297.56C290.17,297.82 290.59,301.46 288.01,302.26L288.01,302.27ZM297.5,292.46L248.11,287.38C244.88,287.04 243.03,283.65 244.59,280.92L262.77,249.3C264.31,246.61 268.21,246.37 270.14,248.81L300.53,287.23C302.34,289.52 300.45,292.76 297.49,292.46L297.5,292.46ZM298.59,276.9L271.54,242.69C269.8,240.48 269.56,237.5 270.94,235.07L282.65,214.72C283.58,213.11 286.07,213.44 286.55,215.24L302.32,275.18C302.88,277.33 299.99,278.66 298.6,276.9L298.59,276.9Z" style="fill:rgb(35,24,21);fill-rule:nonzero;"/>
                        <g>
                            <clipPath id="_clip1">
                                <path d="M313.99,288.8L258.61,81.15L256.24,72.25L80.28,365.95C78.88,368.27 79.41,372.1 79.59,372.31L303.31,307.63C311.35,305.33 316.14,296.88 313.98,288.81L313.99,288.8ZM272.53,161.96L280.99,194.14C281.66,196.7 279.15,198.97 276.53,198.15L253.67,191.02C251.56,190.35 250.59,188.02 251.67,186.17L266.06,161.13C267.59,158.46 271.73,159 272.52,161.96L272.53,161.96ZM200,253C202.17,252.18 204.22,254.43 203.09,256.39L187.21,284.02C186.08,286 182.97,285.48 182.58,283.24L178.93,262.97C178.74,261.85 179.38,260.76 180.47,260.34L200,252.99L200,253ZM185.98,247.35L201.01,221.21C202.13,219.27 205.15,219.77 205.58,221.95L209.08,239.9C209.42,241.67 208.43,243.42 206.69,244.07L189.04,250.72C186.9,251.52 184.86,249.29 185.97,247.35L185.98,247.35ZM193.63,287.11L209.54,259.44C211.27,256.44 215.81,256.58 217.38,259.69L229.02,282.9C230.3,285.45 228.71,288.45 225.82,288.91L198.26,293.38C194.61,293.97 191.84,290.23 193.64,287.11L193.63,287.11ZM218.69,250.23C217.86,248.58 218.98,246.65 220.86,246.44L253.15,243.09C255.38,242.86 256.97,245.15 255.89,247.03L237.75,278.57C236.67,280.45 233.82,280.37 232.86,278.42L218.7,250.23L218.69,250.23ZM227.33,240.47C224.26,240.78 222.07,237.63 223.57,235.05L241.11,204.52C242.66,201.83 246.78,202.09 247.98,204.97L259.46,232.45C260.4,234.7 258.87,237.18 256.38,237.44L227.33,240.48L227.33,240.47ZM245.49,149.19L261.27,148.34C263.04,148.24 264.24,150.06 263.38,151.56L249.25,176.13C248.53,177.4 246.54,177.02 246.36,175.57L243.39,151.58C243.24,150.35 244.19,149.25 245.49,149.18L245.49,149.19ZM251.68,198.94C250.89,197.06 252.73,195.15 254.73,195.78L277.33,202.84C279.07,203.39 279.88,205.32 278.99,206.85L268.03,225.9C266.86,227.94 263.72,227.75 262.81,225.56L251.67,198.94L251.68,198.94ZM262.09,122.33L266.86,140.46C267.2,141.71 266.26,142.93 264.94,143.01L249.25,143.86C247.57,143.94 246.44,142.21 247.25,140.81L258.17,121.82C259.11,120.2 261.63,120.53 262.1,122.34L262.09,122.33ZM241.3,106.18L252.29,87.22C253.22,85.6 255.74,85.95 256.19,87.77L260.27,104.17C260.71,105.94 259.44,107.67 257.56,107.85L243.39,109.21C241.69,109.37 240.49,107.62 241.32,106.18L241.3,106.18ZM241.03,114.2L253.96,112.88C255.06,112.77 255.87,113.92 255.32,114.86L243.72,135.02C243.22,135.89 241.83,135.63 241.7,134.62L239.42,116.14C239.3,115.17 240.02,114.3 241.01,114.2L241.03,114.2ZM238.34,162.43L241.33,186.7C241.48,187.89 240.78,189.02 239.64,189.47L217.81,198.04C216.32,198.63 214.89,197.07 215.67,195.72L235.17,161.81C235.96,160.42 238.14,160.84 238.35,162.42L238.34,162.43ZM219.96,143.02L232.51,121.35C233.06,120.41 234.55,120.7 234.69,121.77L237.43,142.87C237.58,144.04 236.68,145.08 235.47,145.15L221.84,145.9C220.26,146 219.18,144.36 219.96,143.02ZM216.82,154.11C216.96,153.17 217.75,152.45 218.73,152.39L231.13,151.63C232.48,151.55 233.41,152.94 232.75,154.07L214.35,186.06C213.87,186.92 212.51,186.48 212.65,185.51L216.82,154.11ZM233.11,198.52C234.51,197.97 235.85,199.43 235.13,200.7L216.82,232.53C216.1,233.8 214.12,233.47 213.85,232.05L209.73,210.94C209.38,209.18 210.36,207.45 212.08,206.78L233.11,198.52ZM195.02,186.31L209.29,161.68C209.78,160.85 211.1,161.27 210.98,162.21L206.62,195.85C206.44,197.17 204.84,197.8 203.76,196.95L195.98,190.95C194.54,189.83 194.13,187.86 195.03,186.3L195.02,186.31ZM179.63,213.12L189.62,195.88C190.33,194.64 192.03,194.33 193.18,195.23L201.63,201.75C202.71,202.58 202.54,204.2 201.32,204.8L181.12,214.61C180.14,215.09 179.1,214.04 179.63,213.12ZM176.98,222.66L194.32,214.05C195.97,213.22 197.75,214.98 196.84,216.56L179.93,245.96C179.21,247.24 177.19,246.81 177.07,245.35L175.43,225.36C175.34,224.24 175.95,223.18 176.98,222.67L176.98,222.66ZM174.8,275.12L178.33,294.72C178.66,296.52 177.69,298.3 175.99,299.08L155.86,308.21C153.8,309.15 151.7,306.98 152.79,305.06L170.44,274.38C171.5,272.53 174.42,273 174.8,275.12ZM158.26,249.21L168.33,232.01C168.88,231.1 170.33,231.41 170.42,232.47L172.22,254.25C172.33,255.57 170.98,256.55 169.7,256.09L159.53,252.49C158.15,252 157.54,250.43 158.26,249.21ZM138.21,283.2L152.6,258.63C153.51,257.08 155.46,256.39 157.21,257.02L166.56,260.33C167.86,260.78 168.14,262.43 167.06,263.26L139.56,284.32C138.78,284.91 137.72,284.03 138.21,283.2ZM135.43,293.35L161.04,273.6C161.83,273 162.92,273.89 162.42,274.73L143.67,306.53C143,307.66 141.28,307.62 140.66,306.46L134.91,295.82C134.45,294.97 134.68,293.94 135.44,293.35L135.43,293.35ZM114.57,323.29L127.23,301.69C128.01,300.37 130.01,300.4 130.76,301.76L137.15,313.41C137.72,314.45 137.27,315.73 136.17,316.2L116.07,324.88C115.05,325.33 114.01,324.24 114.57,323.29ZM114.16,354.93L97.52,360.07C95.69,360.64 94.09,358.73 95.03,357.13L106.11,338.23C106.94,336.8 109.12,336.88 109.86,338.37L116.01,350.8C116.83,352.45 115.96,354.4 114.17,354.94L114.16,354.93ZM118.2,345.41L112.67,334.04C112.25,333.17 112.64,332.12 113.56,331.72L131.1,324.02C132.05,323.6 133.01,324.61 132.49,325.49L120.67,345.51C120.11,346.45 118.68,346.38 118.2,345.4L118.2,345.41ZM150.49,344.71L131.05,350.75C129.09,351.35 127.34,349.32 128.34,347.59L139.61,328C140.48,326.49 142.73,326.5 143.59,328.03L151.59,342.04C152.18,343.06 151.64,344.36 150.49,344.71ZM154.51,335.48L146.24,320.98C145.75,320.11 146.1,319.03 147.03,318.62L169.51,308.42C171.06,307.71 172.66,309.35 171.83,310.79L157.63,335.49C156.95,336.68 155.19,336.66 154.52,335.48L154.51,335.48ZM204.37,327.03L171.18,337.06C168.25,337.95 165.67,334.91 167.17,332.32L181.85,307.04C182.89,305.24 185.38,304.82 187.02,306.17L205.53,321.42C207.56,323.1 206.91,326.26 204.37,327.04L204.37,327.03ZM210.01,317.6L192.28,303.33C190.88,302.19 191.48,299.98 193.29,299.69L223.77,294.74C225.86,294.41 227.42,296.54 226.4,298.31L215.9,316.56C214.73,318.6 211.89,319.11 210.01,317.6ZM288.01,302.27L226.32,321.32C224.17,321.99 222.24,319.75 223.35,317.84L234.88,297.78C236.62,294.74 240.09,293.01 243.68,293.35L287.46,297.56C290.17,297.82 290.59,301.46 288.01,302.26L288.01,302.27ZM297.5,292.46L248.11,287.38C244.88,287.04 243.03,283.65 244.59,280.92L262.77,249.3C264.31,246.61 268.21,246.37 270.14,248.81L300.53,287.23C302.34,289.52 300.45,292.76 297.49,292.46L297.5,292.46ZM298.59,276.9L271.54,242.69C269.8,240.48 269.56,237.5 270.94,235.07L282.65,214.72C283.58,213.11 286.07,213.44 286.55,215.24L302.32,275.18C302.88,277.33 299.99,278.66 298.6,276.9L298.59,276.9Z"/>
                            </clipPath>
                            <g clip-path="url(#_clip1)">
                                <path d="M190.45,5.16L4.92,355.56L342.41,517.81L527.94,167.41L190.45,5.16Z" style="fill:rgb(35,24,21);fill-rule:nonzero;"/>
                            </g>
                        </g>
                    </g>
                </g>
            </g>
        </g>
        <g transform="matrix(1,0,0,1,563,-749)">
            <g transform="matrix(1,0,0,1,-245,61.5)">
                <path d="M996,2753C1189.667,2752 1383.333,2751 1577,2750" style="fill:rgb(24,24,24);"/>
                <g transform="matrix(1,-0,-0,1,253.136362,2147.7)">
                    <path d="M1280.001,580.651L1323.864,602.3L1280.227,624.401L1280.001,580.651Z" style="fill:rgb(237,237,237);"/>
                    <path d="M742.864,605.3C924.864,604.36 1106.864,603.42 1288.864,602.481" style="fill:none;stroke:rgb(237,237,237);stroke-width:14.58px;"/>
                </g>
            </g>
        </g>
        <g transform="matrix(1,0,0,1,563,-749)">
            <g transform="matrix(1,0,0,1,-245,-14)">
                <g transform="matrix(1,-0,-0,1,253.136362,2223.2)">
                    <path d="M1279.972,304.719L1326.864,290.8L1309.864,336.665L1279.972,304.719Z" style="fill:rgb(237,237,237);"/>
                    <path d="M742.864,529.8C817.333,527.669 966.271,523.406 1093.864,459.8C1188.142,412.801 1257.647,354.684 1301.307,314.713" style="fill:none;stroke:rgb(237,237,237);stroke-width:14.58px;"/>
                </g>
            </g>
        </g>
        <g transform="matrix(1,0,0,1,563,-749)">
            <g transform="matrix(1,0,0,-1,-245,5640)">
                <g transform="matrix(1,0,0,-1,253.136362,3430.8)">
                    <path d="M1309.864,870.935L1326.864,916.8L1279.972,902.881L1309.864,870.935Z" style="fill:rgb(237,237,237);"/>
                    <path d="M742.864,677.8C817.333,679.931 966.271,684.194 1093.864,747.8C1188.142,794.799 1257.647,852.916 1301.307,892.887" style="fill:none;stroke:rgb(237,237,237);stroke-width:14.58px;"/>
                </g>
            </g>
        </g>
    </g>
</svg>
