<?xml version="1.0" encoding="UTF-8" standalone="no"?>
<!DOCTYPE svg PUBLIC "-//W3C//DTD SVG 1.1//EN" "http://www.w3.org/Graphics/SVG/1.1/DTD/svg11.dtd">
<svg width="100%" height="100%" viewBox="0 0 998 560" version="1.1" xmlns="http://www.w3.org/2000/svg" xmlns:xlink="http://www.w3.org/1999/xlink" xml:space="preserve" xmlns:serif="http://www.serif.com/" style="fill-rule:evenodd;clip-rule:evenodd;stroke-linecap:round;stroke-linejoin:round;stroke-miterlimit:1.5;">
    <g transform="matrix(1,0,0,1,-1025,-930.805826)">
        <g transform="matrix(1,0,0,1,0,-29)">
            <g transform="matrix(1.180212,0,0,1.015612,-254.349672,597.755234)">
                <g transform="matrix(1,0,0,1,-483,-649.16027)">
                    <circle cx="1620.5" cy="1179.5" r="6.5" style="fill:white;stroke:rgb(192,192,192);stroke-width:9.46px;"/>
                </g>
                <g transform="matrix(1,0,0,1,-483,-293.033145)">
                    <circle cx="1620.5" cy="1179.5" r="6.5" style="fill:white;stroke:rgb(192,192,192);stroke-width:9.46px;"/>
                </g>
                <g transform="matrix(1,0,0,1,-363,-378)">
                    <circle cx="1620.5" cy="1179.5" r="6.5" style="fill:white;stroke:rgb(192,192,192);stroke-width:9.46px;"/>
                </g>
                <g transform="matrix(1,0,0,1,-483,-407)">
                    <circle cx="1620.5" cy="1179.5" r="6.5" style="fill:white;stroke:rgb(192,192,192);stroke-width:9.46px;"/>
                </g>
                <g transform="matrix(1,0,0,1,-483,-523.254332)">
                    <circle cx="1620.5" cy="1179.5" r="6.5" style="fill:white;stroke:rgb(192,192,192);stroke-width:9.46px;"/>
                </g>
                <g transform="matrix(1,0,0,1,-376.062265,-558.810441)">
                    <circle cx="1620.5" cy="1179.5" r="6.5" style="fill:white;stroke:rgb(192,192,192);stroke-width:9.46px;"/>
                </g>
                <g transform="matrix(1,0,0,1,-280.062265,-456.810441)">
                    <circle cx="1620.5" cy="1179.5" r="6.5" style="fill:white;stroke:rgb(192,192,192);stroke-width:9.46px;"/>
                </g>
                <g transform="matrix(1,0,0,1,-179.955264,-531.451422)">
                    <circle cx="1620.5" cy="1179.5" r="6.5" style="fill:white;stroke:rgb(192,192,192);stroke-width:9.46px;"/>
                </g>
                <g transform="matrix(1,0,0,1,-82.695439,-461.32054)">
                    <circle cx="1620.5" cy="1179.5" r="6.5" style="fill:white;stroke:rgb(192,192,192);stroke-width:9.46px;"/>
                </g>
                <g transform="matrix(1,0,0,1,102.304561,-649.16027)">
                    <circle cx="1620.5" cy="1179.5" r="6.5" style="fill:white;stroke:rgb(192,192,192);stroke-width:9.46px;"/>
                </g>
                <g transform="matrix(1,0,0,1,9.304561,-547.32054)">
                    <circle cx="1620.5" cy="1179.5" r="6.5" style="fill:white;stroke:rgb(192,192,192);stroke-width:9.46px;"/>
                </g>
                <g transform="matrix(1,0,0,1,-41.695439,-649.16027)">
                    <circle cx="1620.5" cy="1179.5" r="6.5" style="fill:white;stroke:rgb(192,192,192);stroke-width:9.46px;"/>
                </g>
                <g transform="matrix(1,0,0,1,283.804561,-649.16027)">
                    <circle cx="1620.5" cy="1179.5" r="6.5" style="fill:white;stroke:rgb(192,192,192);stroke-width:9.46px;"/>
                </g>
                <g transform="matrix(1,0,0,1,181.304561,-558.32054)">
                    <circle cx="1620.5" cy="1179.5" r="6.5" style="fill:white;stroke:rgb(192,192,192);stroke-width:9.46px;"/>
                </g>
                <g transform="matrix(1,0,0,1,189.304561,-341.32054)">
                    <circle cx="1620.5" cy="1179.5" r="6.5" style="fill:white;stroke:rgb(192,192,192);stroke-width:9.46px;"/>
                </g>
                <g transform="matrix(1,0,0,1,283.804561,-293.033145)">
                    <circle cx="1620.5" cy="1179.5" r="6.5" style="fill:white;stroke:rgb(192,192,192);stroke-width:9.46px;"/>
                </g>
                <g transform="matrix(1,0,0,1,283.804561,-418.32054)">
                    <circle cx="1620.5" cy="1179.5" r="6.5" style="fill:white;stroke:rgb(192,192,192);stroke-width:9.46px;"/>
                </g>
                <g transform="matrix(1,0,0,1,283.804561,-531.32054)">
                    <circle cx="1620.5" cy="1179.5" r="6.5" style="fill:white;stroke:rgb(192,192,192);stroke-width:9.46px;"/>
                </g>
                <g transform="matrix(1,0,0,1,-184.955264,-649.16027)">
                    <circle cx="1620.5" cy="1179.5" r="6.5" style="fill:white;stroke:rgb(192,192,192);stroke-width:9.46px;"/>
                </g>
                <g transform="matrix(1,0,0,1,-334.955264,-649.16027)">
                    <circle cx="1620.5" cy="1179.5" r="6.5" style="fill:white;stroke:rgb(192,192,192);stroke-width:9.46px;"/>
                </g>
                <g transform="matrix(1,0,0,1,-170.689576,-386.066289)">
                    <circle cx="1620.5" cy="1179.5" r="6.5" style="fill:white;stroke:rgb(192,192,192);stroke-width:9.46px;"/>
                </g>
                <g transform="matrix(1,0,0,1,-16.689576,-366.066289)">
                    <circle cx="1620.5" cy="1179.5" r="6.5" style="fill:white;stroke:rgb(192,192,192);stroke-width:9.46px;"/>
                </g>
                <g transform="matrix(1,0,0,1,-89.689576,-293.033145)">
                    <circle cx="1620.5" cy="1179.5" r="6.5" style="fill:white;stroke:rgb(192,192,192);stroke-width:9.46px;"/>
                </g>
                <g transform="matrix(1,0,0,1,86.310424,-293.033145)">
                    <circle cx="1620.5" cy="1179.5" r="6.5" style="fill:white;stroke:rgb(192,192,192);stroke-width:9.46px;"/>
                </g>
                <g transform="matrix(1,0,0,1,97.310424,-443.066289)">
                    <circle cx="1620.5" cy="1179.5" r="6.5" style="fill:white;stroke:rgb(192,192,192);stroke-width:9.46px;"/>
                </g>
                <g transform="matrix(1,0,0,1,-374.660083,-293.033145)">
                    <circle cx="1620.5" cy="1179.5" r="6.5" style="fill:white;stroke:rgb(192,192,192);stroke-width:9.46px;"/>
                </g>
                <g transform="matrix(1,0,0,1,-228.886956,-293.033145)">
                    <circle cx="1620.5" cy="1179.5" r="6.5" style="fill:white;stroke:rgb(192,192,192);stroke-width:9.46px;"/>
                </g>
                <path d="M1136,526L1245,619" style="fill:none;stroke:rgb(192,192,192);stroke-width:9.46px;"/>
                <path d="M1135,655L1245,619" style="fill:none;stroke:rgb(192,192,192);stroke-width:9.46px;"/>
                <path d="M1245,619L1286,531" style="fill:none;stroke:rgb(192,192,192);stroke-width:9.46px;"/>
                <path d="M1245,619L1442,645" style="fill:none;stroke:rgb(192,192,192);stroke-width:9.46px;"/>
                <path d="M1436,530L1443,645" style="fill:none;stroke:rgb(192,192,192);stroke-width:9.46px;"/>
                <path d="M1288,532L1443,645" style="fill:none;stroke:rgb(192,192,192);stroke-width:9.46px;"/>
                <path d="M1244,621L1341,722" style="fill:none;stroke:rgb(192,192,192);stroke-width:9.46px;"/>
                <path d="M1342,723L1439,647" style="fill:none;stroke:rgb(192,192,192);stroke-width:9.46px;"/>
                <path d="M1443,645L1577,532" style="fill:none;stroke:rgb(192,192,192);stroke-width:9.46px;"/>
                <path d="M1580,528L1630,631" style="fill:none;stroke:rgb(192,192,192);stroke-width:9.46px;"/>
                <path d="M1630,631L1724,529" style="fill:none;stroke:rgb(192,192,192);stroke-width:9.46px;"/>
                <path d="M1438,645L1630,631" style="fill:none;stroke:rgb(192,192,192);stroke-width:9.46px;"/>
                <path d="M1805,624L1724,532" style="fill:none;stroke:rgb(192,192,192);stroke-width:9.46px;"/>
                <path d="M1633,631L1801,622" style="fill:none;stroke:rgb(192,192,192);stroke-width:9.46px;"/>
                <path d="M1802,619L1904,531" style="fill:none;stroke:rgb(192,192,192);stroke-width:9.46px;"/>
                <path d="M1801,621L1905,648" style="fill:none;stroke:rgb(192,192,192);stroke-width:9.46px;"/>
                <path d="M1801,621L1905,758" style="fill:none;stroke:rgb(192,192,192);stroke-width:9.46px;"/>
                <path d="M1803,620L1720,738" style="fill:none;stroke:rgb(192,192,192);stroke-width:9.46px;"/>
                <path d="M1634,630L1722,738" style="fill:none;stroke:rgb(192,192,192);stroke-width:9.46px;"/>
                <path d="M1543,715L1630,632" style="fill:none;stroke:rgb(192,192,192);stroke-width:9.46px;"/>
                <path d="M1439,646L1537,716" style="fill:none;stroke:rgb(192,192,192);stroke-width:9.46px;"/>
                <path d="M1632,632L1605,812" style="fill:none;stroke:rgb(192,192,192);stroke-width:9.46px;"/>
                <path d="M1719,737L1904,761" style="fill:none;stroke:rgb(192,192,192);stroke-width:9.46px;"/>
                <path d="M1811,839L1905,761" style="fill:none;stroke:rgb(192,192,192);stroke-width:9.46px;"/>
                <path d="M1718,738L1809,836" style="fill:none;stroke:rgb(192,192,192);stroke-width:9.46px;"/>
                <path d="M1810,839L1708,886" style="fill:none;stroke:rgb(192,192,192);stroke-width:9.46px;"/>
                <path d="M1718,737L1707,886" style="fill:none;stroke:rgb(192,192,192);stroke-width:9.46px;"/>
                <path d="M1604,813L1719,736" style="fill:none;stroke:rgb(192,192,192);stroke-width:9.46px;"/>
                <path d="M1606,814L1706,886" style="fill:none;stroke:rgb(192,192,192);stroke-width:9.46px;"/>
                <path d="M1538,719L1604,813" style="fill:none;stroke:rgb(192,192,192);stroke-width:9.46px;"/>
                <path d="M1448,792L1538,720" style="fill:none;stroke:rgb(192,192,192);stroke-width:9.46px;"/>
                <path d="M1442,647L1448,792" style="fill:none;stroke:rgb(192,192,192);stroke-width:9.46px;"/>
                <path d="M1343,724L1450,792" style="fill:none;stroke:rgb(192,192,192);stroke-width:9.46px;"/>
                <path d="M1449,795L1604,813" style="fill:none;stroke:rgb(192,192,192);stroke-width:9.46px;"/>
                <path d="M1606,813L1532,886" style="fill:none;stroke:rgb(192,192,192);stroke-width:9.46px;"/>
                <path d="M1450,793L1531,887" style="fill:none;stroke:rgb(192,192,192);stroke-width:9.46px;"/>
                <path d="M1451,793L1393,888" style="fill:none;stroke:rgb(192,192,192);stroke-width:9.46px;"/>
                <path d="M1261,801L1449,794" style="fill:none;stroke:rgb(192,192,192);stroke-width:9.46px;"/>
                <path d="M1811,838L1904,886" style="fill:none;stroke:rgb(192,192,192);stroke-width:9.46px;"/>
                <path d="M1338,722L1260,800" style="fill:none;stroke:rgb(192,192,192);stroke-width:9.46px;"/>
                <path d="M1138,656L1340,723" style="fill:none;stroke:rgb(192,192,192);stroke-width:9.46px;"/>
                <g transform="matrix(1,0,0,1,0,3)">
                    <path d="M1137,653L1258,798" style="fill:none;stroke:rgb(192,192,192);stroke-width:9.46px;"/>
                </g>
                <path d="M1260,802L1391,887" style="fill:none;stroke:rgb(192,192,192);stroke-width:9.46px;"/>
                <path d="M1254,803L1247,886" style="fill:none;stroke:rgb(192,192,192);stroke-width:9.46px;"/>
                <path d="M1137,887L1253,804" style="fill:none;stroke:rgb(192,192,192);stroke-width:9.46px;"/>
                <path d="M1137,772L1253,797" style="fill:none;stroke:rgb(192,192,192);stroke-width:9.46px;"/>
                <g transform="matrix(0,0.626866,-0.542373,0,1594.372881,284.462687)">
                    <path d="M388.5,882L422,941L355,941L388.5,882Z" style="fill:rgb(237,237,237);"/>
                </g>
                <g transform="matrix(0,0.626866,-0.542373,0,1594.372881,403.79602)">
                    <path d="M388.5,882L422,941L355,941L388.5,882Z" style="fill:rgb(237,237,237);"/>
                </g>
                <g transform="matrix(0,0.626866,-0.542373,0,1594.372881,523.129353)">
                    <path d="M388.5,882L422,941L355,941L388.5,882Z" style="fill:rgb(237,237,237);"/>
                </g>
                <g transform="matrix(0,0.626866,-0.542373,0,1594.372881,642.462687)">
                    <path d="M388.5,882L422,941L355,941L388.5,882Z" style="fill:rgb(237,237,237);"/>
                </g>
                <g transform="matrix(1,0,0,1,-67,34)">
                    <path d="M1216,366L1216,472" style="fill:none;"/>
                    <g transform="matrix(0.847305,-0,-0,0.984628,1151,322.485176)">
                        <path d="M92.339,120.599L76.714,151.849L61.089,120.599L92.339,120.599Z" style="fill:rgb(237,237,237);"/>
                        <path d="M76.714,44.194L76.714,126.849" style="fill:none;stroke:rgb(237,237,237);stroke-width:10.42px;stroke-linecap:butt;"/>
                    </g>
                </g>
                <g transform="matrix(1,0,0,1,118.75,34)">
                    <path d="M1216,366L1216,472" style="fill:none;"/>
                    <g transform="matrix(0.847305,-0,-0,0.984628,965.25,322.485176)">
                        <path d="M311.563,120.599L295.938,151.849L280.313,120.599L311.563,120.599Z" style="fill:rgb(237,237,237);"/>
                        <path d="M295.938,44.194L295.938,126.849" style="fill:none;stroke:rgb(237,237,237);stroke-width:10.42px;stroke-linecap:butt;"/>
                    </g>
                </g>
                <g transform="matrix(1,0,0,1,304.5,34)">
                    <path d="M1216,366L1216,472" style="fill:none;"/>
                    <g transform="matrix(0.847305,-0,-0,0.984628,779.5,322.485176)">
                        <path d="M530.787,120.599L515.162,151.849L499.537,120.599L530.787,120.599Z" style="fill:rgb(237,237,237);"/>
                        <path d="M515.162,44.194L515.162,126.849" style="fill:none;stroke:rgb(237,237,237);stroke-width:10.42px;stroke-linecap:butt;"/>
                    </g>
                </g>
                <g transform="matrix(1,0,0,1,676,34)">
                    <path d="M1216,366L1216,472" style="fill:none;"/>
                    <g transform="matrix(0.847305,-0,-0,0.984628,408,322.485176)">
                        <path d="M969.236,120.599L953.611,151.849L937.986,120.599L969.236,120.599Z" style="fill:rgb(237,237,237);"/>
                        <path d="M953.611,44.194L953.611,126.849" style="fill:none;stroke:rgb(237,237,237);stroke-width:10.42px;stroke-linecap:butt;"/>
                    </g>
                </g>
                <g transform="matrix(1,0,0,1,490.25,34)">
                    <path d="M1216,366L1216,472" style="fill:none;"/>
                    <g transform="matrix(0.847305,-0,-0,0.984628,593.75,322.485176)">
                        <path d="M750.012,120.599L734.387,151.849L718.762,120.599L750.012,120.599Z" style="fill:rgb(237,237,237);"/>
                        <path d="M734.387,44.194L734.387,126.849" style="fill:none;stroke:rgb(237,237,237);stroke-width:10.42px;stroke-linecap:butt;"/>
                    </g>
                </g>
                <g transform="matrix(0.997399,0,0,0.988889,10.938882,-9.933333)">
                    <rect x="1130" y="546" width="769" height="360" style="fill:none;stroke:rgb(192,192,192);stroke-width:9.52px;"/>
                </g>
                <g transform="matrix(1,0,0,1,-1139,159)">
                    <rect x="2776" y="509" width="20" height="71" style="fill:rgb(24,24,24);"/>
                </g>
            </g>
        </g>
    </g>
</svg>
